<svg width="18" height="18" viewBox="0 0 18 18" fill="none" xmlns="http://www.w3.org/2000/svg">
<mask id="path-1-inside-1_9926_526" fill="white">
    <path d="M9 0C10.6598 1.97929e-08 12.2873 0.458995 13.7025 1.32624C15.1177 2.19348 16.2655 3.43519 17.0191 4.91409C17.7726 6.39298 18.1025 8.05145 17.9723 9.70613C17.842 11.3608 17.2568 12.9473 16.2812 14.2901C15.3055 15.6329 13.9776 16.6797 12.4442 17.3149C10.9107 17.9501 9.23146 18.1488 7.59209 17.8892C5.95272 17.6295 4.41709 16.9216 3.15497 15.8437C1.89285 14.7657 0.953399 13.3597 0.440492 11.7812L9 9L9 0Z"/>
</mask>
<path d="M9 0C10.6598 1.97929e-08 12.2873 0.458995 13.7025 1.32624C15.1177 2.19348 16.2655 3.43519 17.0191 4.91409C17.7726 6.39298 18.1025 8.05145 17.9723 9.70613C17.842 11.3608 17.2568 12.9473 16.2812 14.2901C15.3055 15.6329 13.9776 16.6797 12.4442 17.3149C10.9107 17.9501 9.23146 18.1488 7.59209 17.8892C5.95272 17.6295 4.41709 16.9216 3.15497 15.8437C1.89285 14.7657 0.953399 13.3597 0.440492 11.7812L9 9L9 0Z" fill="currentColor" fill-opacity="0.1" stroke="currentColor" stroke-width="2" mask="url(#path-1-inside-1_9926_526)"/>
</svg>
