<svg width="12" height="13" viewBox="0 0 12 13" fill="none" xmlns="http://www.w3.org/2000/svg">
<path d="M6 0.925781C5.23438 0.925781 4.48698 1.07161 3.75781 1.36328C3.04688 1.65495 2.41797 2.07422 1.87109 2.62109C1.32422 3.16797 0.904948 3.80599 0.613281 4.53516C0.321615 5.24609 0.175781 5.98438 0.175781 6.75C0.175781 7.51562 0.321615 8.26302 0.613281 8.99219C0.904948 9.70312 1.32422 10.332 1.87109 10.8789C2.41797 11.4258 3.04688 11.8451 3.75781 12.1367C4.48698 12.4284 5.23438 12.5742 6 12.5742C6.76562 12.5742 7.50391 12.4284 8.21484 12.1367C8.94401 11.8451 9.58203 11.4258 10.1289 10.8789C10.6758 10.332 11.0951 9.70312 11.3867 8.99219C11.6784 8.26302 11.8242 7.51562 11.8242 6.75C11.8242 5.98438 11.6784 5.24609 11.3867 4.53516C11.0951 3.80599 10.6758 3.16797 10.1289 2.62109C9.58203 2.07422 8.94401 1.65495 8.21484 1.36328C7.50391 1.07161 6.76562 0.925781 6 0.925781ZM3.12891 10.4141C3.25651 10.1589 3.62109 9.92188 4.22266 9.70312C4.84245 9.48438 5.4349 9.375 6 9.375C6.5651 9.375 7.14844 9.48438 7.75 9.70312C8.36979 9.92188 8.74349 10.1589 8.87109 10.4141C8.03255 11.0885 7.07552 11.4258 6 11.4258C4.92448 11.4258 3.96745 11.0885 3.12891 10.4141ZM9.71875 9.56641C9.33594 9.11068 8.71615 8.75521 7.85938 8.5C7.1849 8.29948 6.5651 8.19922 6 8.19922C5.4349 8.19922 4.8151 8.29948 4.14062 8.5C3.28385 8.75521 2.66406 9.11068 2.28125 9.56641C1.64323 8.72786 1.32422 7.78906 1.32422 6.75C1.32422 5.91146 1.53385 5.13672 1.95312 4.42578C2.3724 3.69661 2.9375 3.1224 3.64844 2.70312C4.3776 2.28385 5.16146 2.07422 6 2.07422C6.83854 2.07422 7.61328 2.28385 8.32422 2.70312C9.05339 3.1224 9.6276 3.69661 10.0469 4.42578C10.4661 5.13672 10.6758 5.91146 10.6758 6.75C10.6758 7.78906 10.3568 8.72786 9.71875 9.56641ZM6 3.25C5.4349 3.25 4.95182 3.45052 4.55078 3.85156C4.14974 4.2526 3.94922 4.73568 3.94922 5.30078C3.94922 5.86589 4.14974 6.34896 4.55078 6.75C4.95182 7.13281 5.4349 7.32422 6 7.32422C6.5651 7.32422 7.04818 7.13281 7.44922 6.75C7.85026 6.34896 8.05078 5.86589 8.05078 5.30078C8.05078 4.73568 7.85026 4.2526 7.44922 3.85156C7.04818 3.45052 6.5651 3.25 6 3.25ZM6 6.17578C5.76302 6.17578 5.55339 6.09375 5.37109 5.92969C5.20703 5.7474 5.125 5.53776 5.125 5.30078C5.125 5.04557 5.20703 4.83594 5.37109 4.67188C5.55339 4.50781 5.76302 4.42578 6 4.42578C6.23698 4.42578 6.4375 4.50781 6.60156 4.67188C6.78385 4.83594 6.875 5.04557 6.875 5.30078C6.875 5.53776 6.78385 5.7474 6.60156 5.92969C6.4375 6.09375 6.23698 6.17578 6 6.17578Z" fill="currentColor"/>
</svg>
