<svg width="10" height="11" viewBox="0 0 10 11" fill="none" xmlns="http://www.w3.org/2000/svg">
<path d="M4.50781 7H5.49219V8.00781H4.50781V7ZM4.50781 2.99219H5.49219V5.99219H4.50781V2.99219ZM5 0.507812C4.09375 0.507812 3.25781 0.734375 2.49219 1.1875C1.72656 1.625 1.11719 2.22656 0.664062 2.99219C0.226562 3.75781 0.0078125 4.59375 0.0078125 5.5C0.0078125 6.15625 0.132812 6.79688 0.382812 7.42188C0.632812 8.03125 0.992188 8.57031 1.46094 9.03906C1.92969 9.50781 2.46875 9.86719 3.07812 10.1172C3.70312 10.3672 4.34375 10.4922 5 10.4922C5.65625 10.4922 6.28906 10.3672 6.89844 10.1172C7.52344 9.86719 8.07031 9.50781 8.53906 9.03906C9.00781 8.57031 9.36719 8.03125 9.61719 7.42188C9.86719 6.79688 9.99219 6.15625 9.99219 5.5C9.99219 4.84375 9.86719 4.21094 9.61719 3.60156C9.36719 2.97656 9.00781 2.42969 8.53906 1.96094C8.07031 1.49219 7.52344 1.13281 6.89844 0.882812C6.28906 0.632812 5.65625 0.507812 5 0.507812ZM5 9.50781C4.28125 9.50781 3.60938 9.32812 2.98438 8.96875C2.375 8.60938 1.89062 8.125 1.53125 7.51562C1.17188 6.89062 0.992188 6.21875 0.992188 5.5C0.992188 4.96875 1.09375 4.46094 1.29688 3.97656C1.5 3.47656 1.78906 3.03906 2.16406 2.66406C2.53906 2.28906 2.96875 2 3.45312 1.79688C3.95312 1.59375 4.46875 1.49219 5 1.49219C5.53125 1.49219 6.03906 1.59375 6.52344 1.79688C7.02344 2 7.46094 2.28906 7.83594 2.66406C8.21094 3.03906 8.5 3.47656 8.70312 3.97656C8.90625 4.46094 9.00781 4.96875 9.00781 5.5C9.00781 6.21875 8.82812 6.89062 8.46875 7.51562C8.10938 8.125 7.61719 8.60938 6.99219 8.96875C6.38281 9.32812 5.71875 9.50781 5 9.50781Z" fill="currentColor"/>
</svg>
