<svg width="12" height="12" viewBox="0 0 12 12" fill="none" xmlns="http://www.w3.org/2000/svg">
<path d="M10.293 0.335938L11.1133 1.15625L7.77734 4.49219C8.08724 4.94792 8.26042 5.42188 8.29688 5.91406C8.33333 6.40625 8.22396 6.82552 7.96875 7.17188L4.27734 3.48047C4.6237 3.22526 5.04297 3.11589 5.53516 3.15234C6.02734 3.1888 6.5013 3.36198 6.95703 3.67188L10.293 0.335938ZM2.47266 9.00391C1.88932 8.42057 1.41536 7.79167 1.05078 7.11719C0.704427 6.44271 0.476562 5.77734 0.367188 5.12109L3.21094 3.89062L7.55859 8.23828L6.32812 11.082C5.67188 10.9909 5.00651 10.763 4.33203 10.3984C3.65755 10.0339 3.03776 9.56901 2.47266 9.00391Z" fill="currentColor"/>
</svg>
