<svg width="11" height="12" viewBox="0 0 11 12" fill="none" xmlns="http://www.w3.org/2000/svg">
<path d="M5.5 10.4668C6.27865 10.4668 6.99805 10.2721 7.6582 9.88281C8.33529 9.49349 8.86849 8.96875 9.25781 8.30859C9.64714 7.63151 9.8418 6.90365 9.8418 6.125C9.8418 5.54948 9.73177 4.99935 9.51172 4.47461C9.29167 3.93294 8.97852 3.45898 8.57227 3.05273C8.16602 2.64648 7.69206 2.33333 7.15039 2.11328C6.62565 1.89323 6.07552 1.7832 5.5 1.7832C4.92448 1.7832 4.36589 1.89323 3.82422 2.11328C3.29948 2.33333 2.83398 2.64648 2.42773 3.05273C2.02148 3.45898 1.70833 3.93294 1.48828 4.47461C1.26823 4.99935 1.1582 5.54948 1.1582 6.125C1.1582 6.90365 1.35286 7.63151 1.74219 8.30859C2.13151 8.96875 2.65625 9.49349 3.31641 9.88281C3.99349 10.2721 4.72135 10.4668 5.5 10.4668ZM5.5 0.716797C6.21094 0.716797 6.89648 0.852214 7.55664 1.12305C8.23372 1.39388 8.82617 1.7832 9.33398 2.29102C9.8418 2.79883 10.2311 3.39128 10.502 4.06836C10.7728 4.72852 10.9082 5.41406 10.9082 6.125C10.9082 6.83594 10.7728 7.52995 10.502 8.20703C10.2311 8.86719 9.8418 9.45117 9.33398 9.95898C8.82617 10.4668 8.23372 10.8561 7.55664 11.127C6.89648 11.3978 6.21094 11.5332 5.5 11.5332C4.51823 11.5332 3.61263 11.2962 2.7832 10.8223C1.95378 10.3314 1.29362 9.67122 0.802734 8.8418C0.328776 8.01237 0.0917969 7.10677 0.0917969 6.125C0.0917969 5.41406 0.227214 4.72852 0.498047 4.06836C0.76888 3.39128 1.1582 2.79883 1.66602 2.29102C2.17383 1.7832 2.75781 1.39388 3.41797 1.12305C4.09505 0.852214 4.78906 0.716797 5.5 0.716797ZM5.7793 3.4082V6.25195L8.2168 7.69922L7.81055 8.38477L4.9668 6.6582V3.4082H5.7793Z" fill="currentColor"/>
</svg>
