<svg width="12" height="14" viewBox="0 0 12 14" fill="none" xmlns="http://www.w3.org/2000/svg">
<path opacity="0.6" d="M10.0742 12H3.67578V3.82422H10.0742V12ZM10.0742 2.67578H3.67578C3.34766 2.67578 3.0651 2.79427 2.82812 3.03125C2.60938 3.25 2.5 3.51432 2.5 3.82422V12C2.5 12.3281 2.60938 12.6016 2.82812 12.8203C3.0651 13.0573 3.34766 13.1758 3.67578 13.1758H10.0742C10.4023 13.1758 10.6758 13.0573 10.8945 12.8203C11.1315 12.6016 11.25 12.3281 11.25 12V3.82422C11.25 3.51432 11.1315 3.25 10.8945 3.03125C10.6758 2.79427 10.4023 2.67578 10.0742 2.67578ZM8.32422 0.324219H1.32422C1.01432 0.324219 0.740885 0.442708 0.503906 0.679688C0.285156 0.898438 0.175781 1.17188 0.175781 1.5V9.67578H1.32422V1.5H8.32422V0.324219Z" fill="currentColor"/>
</svg>
