<svg width="4" height="12" viewBox="0 0 4 12" fill="none" xmlns="http://www.w3.org/2000/svg">
<path d="M2 8.65625C2.375 8.65625 2.6875 8.79167 2.9375 9.0625C3.20833 9.3125 3.34375 9.625 3.34375 10C3.34375 10.375 3.20833 10.6979 2.9375 10.9688C2.6875 11.2188 2.375 11.3438 2 11.3438C1.625 11.3438 1.30208 11.2188 1.03125 10.9688C0.78125 10.6979 0.65625 10.375 0.65625 10C0.65625 9.625 0.78125 9.3125 1.03125 9.0625C1.30208 8.79167 1.625 8.65625 2 8.65625ZM2 4.65625C2.375 4.65625 2.6875 4.79167 2.9375 5.0625C3.20833 5.3125 3.34375 5.625 3.34375 6C3.34375 6.375 3.20833 6.69792 2.9375 6.96875C2.6875 7.21875 2.375 7.34375 2 7.34375C1.625 7.34375 1.30208 7.21875 1.03125 6.96875C0.78125 6.69792 0.65625 6.375 0.65625 6C0.65625 5.625 0.78125 5.3125 1.03125 5.0625C1.30208 4.79167 1.625 4.65625 2 4.65625ZM2 0.65625C2.375 0.65625 2.6875 0.791667 2.9375 1.0625C3.20833 1.3125 3.34375 1.625 3.34375 2C3.34375 2.375 3.20833 2.69792 2.9375 2.96875C2.6875 3.21875 2.375 3.34375 2 3.34375C1.625 3.34375 1.30208 3.21875 1.03125 2.96875C0.78125 2.69792 0.65625 2.375 0.65625 2C0.65625 1.625 0.78125 1.3125 1.03125 1.0625C1.30208 0.791667 1.625 0.65625 2 0.65625Z" fill="currentColor"/>
</svg>
