<svg width="12" height="13" viewBox="0 0 12 13" fill="none" xmlns="http://www.w3.org/2000/svg">
<path d="M9.44531 9.89453C9.3724 9.65755 9.22656 9.46615 9.00781 9.32031C8.80729 9.15625 8.57943 9.07422 8.32422 9.07422H7.75V7.32422C7.75 7.16016 7.69531 7.02344 7.58594 6.91406C7.47656 6.80469 7.33984 6.75 7.17578 6.75H3.67578V5.57422H4.82422C4.98828 5.57422 5.125 5.51953 5.23438 5.41016C5.36198 5.30078 5.42578 5.16406 5.42578 5V3.82422H6.57422C6.90234 3.82422 7.17578 3.71484 7.39453 3.49609C7.63151 3.25911 7.75 2.98568 7.75 2.67578V2.42969C8.625 2.77604 9.32682 3.34115 9.85547 4.125C10.4023 4.90885 10.6758 5.78385 10.6758 6.75C10.6758 7.35156 10.5664 7.92578 10.3477 8.47266C10.1289 9.0013 9.82812 9.47526 9.44531 9.89453ZM5.42578 11.3711C4.66016 11.2799 3.96745 11.0156 3.34766 10.5781C2.72786 10.1406 2.23568 9.59375 1.87109 8.9375C1.50651 8.26302 1.32422 7.53385 1.32422 6.75C1.32422 6.40365 1.36979 6.05729 1.46094 5.71094L4.25 8.5V9.07422C4.25 9.40234 4.35938 9.6849 4.57812 9.92188C4.8151 10.1406 5.09766 10.25 5.42578 10.25V11.3711ZM6 0.925781C5.23438 0.925781 4.48698 1.07161 3.75781 1.36328C3.04688 1.65495 2.41797 2.07422 1.87109 2.62109C1.32422 3.16797 0.904948 3.80599 0.613281 4.53516C0.321615 5.24609 0.175781 5.98438 0.175781 6.75C0.175781 7.51562 0.321615 8.26302 0.613281 8.99219C0.904948 9.70312 1.32422 10.332 1.87109 10.8789C2.41797 11.4258 3.04688 11.8451 3.75781 12.1367C4.48698 12.4284 5.23438 12.5742 6 12.5742C6.76562 12.5742 7.50391 12.4284 8.21484 12.1367C8.94401 11.8451 9.58203 11.4258 10.1289 10.8789C10.6758 10.332 11.0951 9.70312 11.3867 8.99219C11.6784 8.26302 11.8242 7.51562 11.8242 6.75C11.8242 5.98438 11.6784 5.24609 11.3867 4.53516C11.0951 3.80599 10.6758 3.16797 10.1289 2.62109C9.58203 2.07422 8.94401 1.65495 8.21484 1.36328C7.50391 1.07161 6.76562 0.925781 6 0.925781Z" fill="currentColor"/>
</svg>
