<svg width="14" height="12" viewBox="0 0 14 12" fill="none" xmlns="http://www.w3.org/2000/svg">
<path d="M12.3438 3.34375L7 6.65625L1.65625 3.34375V2L7 5.34375L12.3438 2V3.34375ZM12.3438 0.65625H1.65625C1.30208 0.65625 0.989583 0.791667 0.71875 1.0625C0.46875 1.3125 0.34375 1.625 0.34375 2V10C0.34375 10.375 0.46875 10.6979 0.71875 10.9688C0.989583 11.2188 1.30208 11.3438 1.65625 11.3438H12.3438C12.6979 11.3438 13 11.2188 13.25 10.9688C13.5208 10.6979 13.6562 10.375 13.6562 10V2C13.6562 1.625 13.5208 1.3125 13.25 1.0625C13 0.791667 12.6979 0.65625 12.3438 0.65625Z" fill="currentColor"/>
</svg>
