<svg width="14" height="11" viewBox="0 0 14 11" fill="none" xmlns="http://www.w3.org/2000/svg">
<path d="M7 3C7.49219 3 7.90234 3.17318 8.23047 3.51953C8.57682 3.84766 8.75 4.25781 8.75 4.75C8.75 5.24219 8.57682 5.66146 8.23047 6.00781C7.90234 6.33594 7.49219 6.5 7 6.5C6.50781 6.5 6.08854 6.33594 5.74219 6.00781C5.41406 5.66146 5.25 5.24219 5.25 4.75C5.25 4.25781 5.41406 3.84766 5.74219 3.51953C6.08854 3.17318 6.50781 3 7 3ZM7 0.375C8.4401 0.375 9.74349 0.785156 10.9102 1.60547C12.0768 2.40755 12.9154 3.45573 13.4258 4.75C12.9154 6.04427 12.0768 7.10156 10.9102 7.92188C9.74349 8.72396 8.4401 9.125 7 9.125C5.5599 9.125 4.25651 8.72396 3.08984 7.92188C1.92318 7.10156 1.08464 6.04427 0.574219 4.75C1.08464 3.45573 1.92318 2.40755 3.08984 1.60547C4.25651 0.785156 5.5599 0.375 7 0.375ZM1.85938 4.75C2.33333 5.73438 3.03516 6.51823 3.96484 7.10156C4.89453 7.66667 5.90625 7.94922 7 7.94922C8.09375 7.94922 9.10547 7.66667 10.0352 7.10156C10.9648 6.51823 11.6667 5.73438 12.1406 4.75C11.6667 3.76562 10.9648 2.99089 10.0352 2.42578C9.10547 1.84245 8.09375 1.55078 7 1.55078C5.90625 1.55078 4.89453 1.84245 3.96484 2.42578C3.03516 2.99089 2.33333 3.76562 1.85938 4.75Z" fill="currentColor"/>
</svg>
