<svg width="14" height="11" viewBox="0 0 14 11" fill="none" xmlns="http://www.w3.org/2000/svg">
<path d="M1.17578 0.8125L1.91406 0.0742188L11.6758 9.83594L10.9375 10.5742L9.13281 8.79688C8.4401 9.01562 7.72917 9.125 7 9.125C5.5599 9.125 4.25651 8.72396 3.08984 7.92188C1.92318 7.10156 1.08464 6.04427 0.574219 4.75C0.97526 3.71094 1.59505 2.82682 2.43359 2.09766L1.17578 0.8125ZM7 3C7.49219 3 7.90234 3.17318 8.23047 3.51953C8.57682 3.84766 8.75 4.25781 8.75 4.75C8.75 4.95052 8.71354 5.14193 8.64062 5.32422L6.42578 3.10938C6.60807 3.03646 6.79948 3 7 3ZM7 0.375C8.4401 0.375 9.74349 0.785156 10.9102 1.60547C12.0768 2.40755 12.9154 3.45573 13.4258 4.75C12.9336 5.98958 12.1497 7.0013 11.0742 7.78516L10.2539 6.9375C11.0742 6.3724 11.7031 5.64323 12.1406 4.75C11.6667 3.76562 10.9648 2.99089 10.0352 2.42578C9.10547 1.84245 8.09375 1.55078 7 1.55078C6.38021 1.55078 5.76953 1.64193 5.16797 1.82422L4.26562 0.949219C5.14062 0.566406 6.05208 0.375 7 0.375ZM1.85938 4.75C2.33333 5.73438 3.03516 6.51823 3.96484 7.10156C4.89453 7.66667 5.90625 7.94922 7 7.94922C7.41927 7.94922 7.8112 7.91276 8.17578 7.83984L6.83594 6.5C6.41667 6.46354 6.05208 6.29948 5.74219 6.00781C5.45052 5.69792 5.28646 5.33333 5.25 4.91406L3.25391 2.91797C2.67057 3.42839 2.20573 4.03906 1.85938 4.75Z" fill="currentColor"/>
</svg>
