<svg width="12" height="14" viewBox="0 0 12 14" fill="none" xmlns="http://www.w3.org/2000/svg">
<path d="M7.34375 0.34375L11.3438 4.34375V12.3438C11.3438 12.6979 11.2083 13 10.9375 13.25C10.6875 13.5208 10.375 13.6562 10 13.6562H2C1.625 13.6562 1.30208 13.5208 1.03125 13.25C0.78125 13 0.65625 12.6979 0.65625 12.3438V1.65625C0.65625 1.30208 0.78125 1 1.03125 0.75C1.30208 0.479167 1.625 0.34375 2 0.34375H7.34375ZM10 12.3438V5H6.65625V1.65625H2V12.3438H10ZM6 11.6562L3.34375 9H5V7H7V9H8.65625L6 11.6562Z" fill="currentColor"/>
</svg>
