<svg width="12" height="10" viewBox="0 0 12 10" fill="none" xmlns="http://www.w3.org/2000/svg">
<path d="M10.6758 8.25H1.32422V2.42578H10.6758V8.25ZM10.6758 1.25H6L4.82422 0.0742188H1.32422C1.01432 0.0742188 0.740885 0.192708 0.503906 0.429688C0.285156 0.648438 0.175781 0.921875 0.175781 1.25V8.25C0.175781 8.57812 0.285156 8.86068 0.503906 9.09766C0.740885 9.31641 1.01432 9.42578 1.32422 9.42578H10.6758C10.9857 9.42578 11.25 9.31641 11.4688 9.09766C11.7057 8.86068 11.8242 8.57812 11.8242 8.25V2.42578C11.8242 2.09766 11.7057 1.82422 11.4688 1.60547C11.25 1.36849 10.9857 1.25 10.6758 1.25Z" fill="currentColor"/>
</svg>
