<svg width="18" height="16" viewBox="0 0 18 16" fill="none" xmlns="http://www.w3.org/2000/svg">
<path d="M9 0.179688C7.90625 0.179688 6.83854 0.388021 5.79688 0.804688C4.78125 1.22135 3.88281 1.82031 3.10156 2.60156C2.32031 3.38281 1.72135 4.29427 1.30469 5.33594C0.888021 6.35156 0.679688 7.40625 0.679688 8.5C0.679688 10.3229 1.20052 11.9635 2.24219 13.4219C3.3099 14.8542 4.6901 15.8568 6.38281 16.4297C6.5651 16.4557 6.69531 16.4167 6.77344 16.3125C6.8776 16.2344 6.92969 16.1302 6.92969 16V14.5938C5.96615 14.8021 5.21094 14.6719 4.66406 14.2031C4.3776 13.9948 4.19531 13.7474 4.11719 13.4609C4.01302 13.1745 3.86979 12.9271 3.6875 12.7188C3.58333 12.5625 3.46615 12.4453 3.33594 12.3672L3.17969 12.25C2.97135 12.0938 2.86719 11.9766 2.86719 11.8984C2.86719 11.8203 2.93229 11.7812 3.0625 11.7812L3.25781 11.7422C3.59635 11.7682 3.90885 11.9245 4.19531 12.2109C4.35156 12.3411 4.45573 12.4714 4.50781 12.6016C4.84635 13.1484 5.28906 13.4479 5.83594 13.5C6.17448 13.526 6.55208 13.4609 6.96875 13.3047C7.02083 12.8099 7.1901 12.4323 7.47656 12.1719C6.33073 12.0417 5.47135 11.7292 4.89844 11.2344C4.09115 10.5573 3.6875 9.5026 3.6875 8.07031C3.6875 7.21094 3.97396 6.46875 4.54688 5.84375C4.44271 5.60938 4.39062 5.34896 4.39062 5.0625C4.33854 4.59375 4.41667 4.11198 4.625 3.61719H4.85938C5.06771 3.61719 5.3151 3.66927 5.60156 3.77344C6.01823 3.92969 6.46094 4.16406 6.92969 4.47656C7.58073 4.29427 8.27083 4.20312 9 4.20312C9.72917 4.20312 10.4193 4.29427 11.0703 4.47656C11.7474 4.03385 12.3333 3.76042 12.8281 3.65625C13.0885 3.60417 13.2708 3.59115 13.375 3.61719C13.5833 4.11198 13.6615 4.59375 13.6094 5.0625C13.6094 5.34896 13.5573 5.60938 13.4531 5.84375C14.026 6.46875 14.3125 7.21094 14.3125 8.07031C14.3125 9.52865 13.9089 10.5833 13.1016 11.2344C12.5026 11.7292 11.6432 12.0417 10.5234 12.1719C10.888 12.5104 11.0703 13.0312 11.0703 13.7344V16C11.0703 16.1302 11.1094 16.2344 11.1875 16.3125C11.2917 16.4167 11.4479 16.4557 11.6562 16.4297C13.3229 15.8568 14.6771 14.8542 15.7188 13.4219C16.7865 11.9635 17.3203 10.3229 17.3203 8.5C17.3203 7.40625 17.112 6.35156 16.6953 5.33594C16.2786 4.29427 15.6797 3.38281 14.8984 2.60156C14.1172 1.82031 13.2057 1.22135 12.1641 0.804688C11.1484 0.388021 10.0938 0.179688 9 0.179688Z" fill="currentColor"/>
</svg>
