<svg width="20" height="20" viewBox="0 0 20 20" fill="none" xmlns="http://www.w3.org/2000/svg">
<path d="M17.7812 13.4219C18.25 12.3281 18.4844 11.1875 18.4844 10C18.4844 8.8125 18.25 7.67188 17.7812 6.57812L15.0625 7.84375C15.3438 8.53125 15.4844 9.25 15.4844 10C15.4844 10.75 15.3438 11.4688 15.0625 12.1562L17.7812 13.4219ZM13.4219 2.21875C12.3281 1.75 11.1875 1.51562 10 1.51562C8.8125 1.51562 7.67188 1.75 6.57812 2.21875L7.84375 4.9375C8.53125 4.65625 9.25 4.51562 10 4.51562C10.75 4.51562 11.4844 4.65625 12.2031 4.9375L13.4219 2.21875ZM2.21875 6.57812C1.75 7.67188 1.51562 8.8125 1.51562 10C1.51562 11.1875 1.75 12.3281 2.21875 13.4219L4.9375 12.1562C4.65625 11.4688 4.51562 10.75 4.51562 10C4.51562 9.25 4.65625 8.51562 4.9375 7.79688L2.21875 6.57812ZM6.57812 17.7812C7.67188 18.25 8.8125 18.4844 10 18.4844C11.1875 18.4844 12.3281 18.25 13.4219 17.7812L12.2031 15.0625C11.4844 15.3438 10.75 15.4844 10 15.4844C9.25 15.4844 8.53125 15.3438 7.84375 15.0625L6.57812 17.7812ZM10 0.015625C11.3125 0.015625 12.5781 0.265625 13.7969 0.765625C15.0469 1.26563 16.1406 1.98438 17.0781 2.92188C18.0156 3.85938 18.7344 4.95312 19.2344 6.20312C19.7344 7.42188 19.9844 8.6875 19.9844 10C19.9844 11.3125 19.7344 12.5938 19.2344 13.8438C18.7344 15.0625 18.0156 16.1406 17.0781 17.0781C16.1406 18.0156 15.0469 18.7344 13.7969 19.2344C12.5781 19.7344 11.3125 19.9844 10 19.9844C8.6875 19.9844 7.40625 19.7344 6.15625 19.2344C4.9375 18.7344 3.85938 18.0156 2.92188 17.0781C1.98438 16.1406 1.26562 15.0625 0.765625 13.8438C0.265625 12.5938 0.015625 11.3125 0.015625 10C0.015625 8.6875 0.265625 7.42188 0.765625 6.20312C1.26562 4.95312 1.98438 3.85938 2.92188 2.92188C3.85938 1.98438 4.9375 1.26563 6.15625 0.765625C7.40625 0.265625 8.6875 0.015625 10 0.015625ZM10 6.01562C8.90625 6.01562 7.96875 6.40625 7.1875 7.1875C6.40625 7.96875 6.01562 8.90625 6.01562 10C6.01562 11.0938 6.40625 12.0312 7.1875 12.8125C7.96875 13.5938 8.90625 13.9844 10 13.9844C11.0938 13.9844 12.0312 13.5938 12.8125 12.8125C13.5938 12.0312 13.9844 11.0938 13.9844 10C13.9844 8.90625 13.5938 7.96875 12.8125 7.1875C12.0312 6.40625 11.0938 6.01562 10 6.01562Z" fill="currentColor"/>
</svg>
