<svg width="16" height="15" viewBox="0 0 16 15" fill="none" xmlns="http://www.w3.org/2000/svg">
<path d="M13.8203 0C14.2891 0 14.6797 0.169271 14.9922 0.507812C15.3307 0.820312 15.5 1.21094 15.5 1.67969V13.3203C15.5 13.7891 15.3307 14.1927 14.9922 14.5312C14.6797 14.8438 14.2891 15 13.8203 15H2.17969C1.71094 15 1.30729 14.8438 0.96875 14.5312C0.65625 14.1927 0.5 13.7891 0.5 13.3203V1.67969C0.5 1.21094 0.65625 0.820312 0.96875 0.507812C1.30729 0.169271 1.71094 0 2.17969 0H13.8203ZM13.4297 12.9297V8.51562C13.4297 7.76042 13.1562 7.1224 12.6094 6.60156C12.0885 6.05469 11.4505 5.78125 10.6953 5.78125C10.3307 5.78125 9.96615 5.88542 9.60156 6.09375C9.23698 6.30208 8.96354 6.5625 8.78125 6.875V5.9375H6.4375V12.9297H8.78125V8.78906C8.78125 8.47656 8.88542 8.21615 9.09375 8.00781C9.32812 7.77344 9.60156 7.65625 9.91406 7.65625C10.2526 7.65625 10.526 7.77344 10.7344 8.00781C10.9688 8.21615 11.0859 8.47656 11.0859 8.78906V12.9297H13.4297ZM3.74219 4.64844C4.13281 4.64844 4.45833 4.51823 4.71875 4.25781C5.00521 3.97135 5.14844 3.63281 5.14844 3.24219C5.14844 2.85156 5.00521 2.52604 4.71875 2.26562C4.45833 1.97917 4.13281 1.83594 3.74219 1.83594C3.35156 1.83594 3.01302 1.97917 2.72656 2.26562C2.46615 2.52604 2.33594 2.85156 2.33594 3.24219C2.33594 3.63281 2.46615 3.97135 2.72656 4.25781C3.01302 4.51823 3.35156 4.64844 3.74219 4.64844ZM4.875 12.9297V5.9375H2.57031V12.9297H4.875Z" fill="currentColor"/>
</svg>
