<svg width="10" height="13" viewBox="0 0 10 13" fill="none" xmlns="http://www.w3.org/2000/svg">
<path d="M5 9.67578C4.67188 9.67578 4.38932 9.56641 4.15234 9.34766C3.93359 9.11068 3.82422 8.82812 3.82422 8.5C3.82422 8.17188 3.93359 7.89844 4.15234 7.67969C4.38932 7.44271 4.67188 7.32422 5 7.32422C5.32812 7.32422 5.60156 7.44271 5.82031 7.67969C6.05729 7.89844 6.17578 8.17188 6.17578 8.5C6.17578 8.82812 6.05729 9.11068 5.82031 9.34766C5.60156 9.56641 5.32812 9.67578 5 9.67578ZM8.5 11.4258V5.57422H1.5V11.4258H8.5ZM8.5 4.42578C8.82812 4.42578 9.10156 4.54427 9.32031 4.78125C9.55729 5 9.67578 5.26432 9.67578 5.57422V11.4258C9.67578 11.7357 9.55729 12 9.32031 12.2188C9.10156 12.4557 8.82812 12.5742 8.5 12.5742H1.5C1.17188 12.5742 0.889323 12.4557 0.652344 12.2188C0.433594 12 0.324219 11.7357 0.324219 11.4258V5.57422C0.324219 5.26432 0.433594 5 0.652344 4.78125C0.889323 4.54427 1.17188 4.42578 1.5 4.42578H2.07422V3.25C2.07422 2.86719 2.14714 2.5026 2.29297 2.15625C2.45703 1.79167 2.67578 1.47266 2.94922 1.19922C3.22266 0.925781 3.53255 0.716146 3.87891 0.570312C4.24349 0.40625 4.61719 0.324219 5 0.324219C5.38281 0.324219 5.7474 0.40625 6.09375 0.570312C6.45833 0.716146 6.77734 0.925781 7.05078 1.19922C7.32422 1.47266 7.53385 1.79167 7.67969 2.15625C7.84375 2.5026 7.92578 2.86719 7.92578 3.25V4.42578H8.5ZM5 1.5C4.50781 1.5 4.08854 1.67318 3.74219 2.01953C3.41406 2.34766 3.25 2.75781 3.25 3.25V4.42578H6.75V3.25C6.75 2.75781 6.57682 2.34766 6.23047 2.01953C5.90234 1.67318 5.49219 1.5 5 1.5Z" fill="currentColor"/>
</svg>
