<svg width="11" height="11" viewBox="0 0 11 11" fill="none" xmlns="http://www.w3.org/2000/svg">
<path d="M4.55094 0.5C5.22542 0.5 5.85433 0.673177 6.43766 1.01953C7.021 1.34766 7.47672 1.80339 7.80485 2.38672C8.1512 2.97005 8.32438 3.60807 8.32438 4.30078C8.32438 5.23047 8.0236 6.05078 7.42204 6.76172L7.5861 6.92578H8.05094L10.9494 9.82422L10.0744 10.6992L7.17594 7.80078V7.33594L7.01188 7.17188C6.30094 7.77344 5.48063 8.07422 4.55094 8.07422C4.04053 8.07422 3.54834 7.98307 3.07438 7.80078C2.61865 7.60026 2.2085 7.32682 1.84391 6.98047C1.49756 6.61589 1.22412 6.20573 1.0236 5.75C0.841308 5.27604 0.750162 4.79297 0.750162 4.30078C0.750162 3.60807 0.914225 2.97005 1.24235 2.38672C1.5887 1.80339 2.05355 1.34766 2.63688 1.01953C3.22021 0.673177 3.85824 0.5 4.55094 0.5ZM4.55094 1.67578C3.82178 1.67578 3.20199 1.93099 2.69157 2.44141C2.18115 2.95182 1.92594 3.57161 1.92594 4.30078C1.92594 5.02995 2.18115 5.64974 2.69157 6.16016C3.20199 6.67057 3.82178 6.92578 4.55094 6.92578C5.28011 6.92578 5.8999 6.67057 6.41032 6.16016C6.92074 5.64974 7.17594 5.02995 7.17594 4.30078C7.17594 3.57161 6.92074 2.95182 6.41032 2.44141C5.8999 1.93099 5.28011 1.67578 4.55094 1.67578Z" fill="currentColor"/>
</svg>
