<svg width="21" height="20" viewBox="0 0 21 20" fill="none" xmlns="http://www.w3.org/2000/svg">
<path d="M10.9844 0.0625V2.03125C12.4219 2.21875 13.7031 2.75 14.8281 3.625C15.9844 4.46875 16.8281 5.54688 17.3594 6.85938C17.9219 8.17188 18.125 9.54688 17.9688 10.9844C17.7188 12.7969 16.9375 14.3594 15.625 15.6719C14.3438 16.9531 12.7969 17.7031 10.9844 17.9219V19.9375C12.7969 19.75 14.4219 19.1406 15.8594 18.1094C17.2969 17.0469 18.375 15.7188 19.0938 14.125C19.8438 12.5 20.125 10.7969 19.9375 9.01562C19.8125 7.45312 19.3281 6.01562 18.4844 4.70312C17.6719 3.39062 16.6094 2.32812 15.2969 1.51562C13.9844 0.671875 12.5469 0.171875 10.9844 0.015625V0.0625ZM3.67188 17.7344C5.23438 19.0156 7.01562 19.7656 9.01562 19.9844V18.0156C7.57812 17.8281 6.26562 17.2812 5.07812 16.375L3.67188 17.7344ZM5.07812 3.71875C6.23438 2.8125 7.54688 2.26562 9.01562 2.07812V0.0625C6.98438 0.25 5.20312 0.984375 3.67188 2.26562L5.07812 3.71875ZM3.67188 5.07812L2.26562 3.67188C0.984375 5.20313 0.25 6.98438 0.0625 9.01562H2.03125C2.25 7.54688 2.79688 6.23438 3.67188 5.07812ZM2.07812 10.9844H0.0625C0.25 12.9844 0.984375 14.7656 2.26562 16.3281L3.67188 14.9219C2.76562 13.7344 2.23438 12.4219 2.07812 10.9844ZM7.98438 14.5L13.9844 10L7.98438 5.5V14.5Z" fill="currentColor"/>
</svg>
