<svg width="12" height="14" viewBox="0 0 12 14" fill="none" xmlns="http://www.w3.org/2000/svg">
<path d="M6 2.65625C6.70833 2.65625 7.38542 2.79167 8.03125 3.0625C8.67708 3.33333 9.23958 3.70833 9.71875 4.1875C10.4062 4.875 10.8646 5.67708 11.0938 6.59375C11.3438 7.51042 11.3438 8.42708 11.0938 9.34375C10.8646 10.2604 10.4062 11.0521 9.71875 11.7188C9.15625 12.3438 8.46875 12.7917 7.65625 13.0625C6.88542 13.3125 6.09375 13.3854 5.28125 13.2812L5.59375 11.9375C6.17708 12 6.75 11.9375 7.3125 11.75C7.875 11.5417 8.375 11.2292 8.8125 10.8125C9.3125 10.2917 9.64583 9.69792 9.8125 9.03125C10 8.34375 10 7.65625 9.8125 6.96875C9.64583 6.26042 9.3125 5.64583 8.8125 5.125C8.4375 4.77083 8 4.5 7.5 4.3125C7 4.10417 6.5 4 6 4V7.0625L2.65625 3.71875L6 0.40625V2.65625ZM2.1875 11.7188C1.33333 10.8646 0.833333 9.84375 0.6875 8.65625C0.5625 7.44792 0.802083 6.32292 1.40625 5.28125L2.40625 6.28125C2.03125 7.01042 1.90625 7.80208 2.03125 8.65625C2.17708 9.48958 2.5625 10.2083 3.1875 10.8125C3.52083 11.1458 3.92708 11.4062 4.40625 11.5938L4 12.9375C3.33333 12.6667 2.72917 12.2604 2.1875 11.7188Z" fill="currentColor"/>
</svg>
