<svg width="18" height="24" viewBox="0 0 18 24" fill="none" xmlns="http://www.w3.org/2000/svg">
<path d="M0.984375 0.984375H17.0156C17.2969 0.984375 17.5312 1.09375 17.7188 1.3125C17.9062 1.5 18 1.73438 18 2.01562V6C18 6.28125 17.9062 6.51562 17.7188 6.70312C17.5312 6.89062 17.2969 6.98438 17.0156 6.98438H0.984375C0.703125 6.98438 0.46875 6.89062 0.28125 6.70312C0.09375 6.51562 0 6.28125 0 6V2.01562C0 1.73438 0.09375 1.5 0.28125 1.3125C0.46875 1.09375 0.703125 0.984375 0.984375 0.984375ZM0.984375 9H17.0156C17.2969 9 17.5312 9.09375 17.7188 9.28125C17.9062 9.46875 18 9.70312 18 9.98438V14.0156C18 14.2969 17.9062 14.5312 17.7188 14.7188C17.5312 14.9062 17.2969 15 17.0156 15H0.984375C0.703125 15 0.46875 14.9062 0.28125 14.7188C0.09375 14.5312 0 14.2969 0 14.0156V9.98438C0 9.70312 0.09375 9.46875 0.28125 9.28125C0.46875 9.09375 0.703125 9 0.984375 9ZM0.984375 17.0156H17.0156C17.2969 17.0156 17.5312 17.1094 17.7188 17.2969C17.9062 17.4844 18 17.7188 18 18V21.9844C18 22.2656 17.9062 22.5 17.7188 22.6875C17.5312 22.9062 17.2969 23.0156 17.0156 23.0156H0.984375C0.703125 23.0156 0.46875 22.9062 0.28125 22.6875C0.09375 22.5 0 22.2656 0 21.9844V18C0 17.7188 0.09375 17.4844 0.28125 17.2969C0.46875 17.1094 0.703125 17.0156 0.984375 17.0156ZM6 5.01562H6.98438V3H6V5.01562ZM6 12.9844H6.98438V11.0156H6V12.9844ZM6 21H6.98438V18.9844H6V21ZM2.01562 3V5.01562H3.98438V3H2.01562ZM2.01562 11.0156V12.9844H3.98438V11.0156H2.01562ZM2.01562 18.9844V21H3.98438V18.9844H2.01562Z" fill="currentColor"/>
</svg>
