<svg width="20" height="20" viewBox="0 0 20 20" fill="none" xmlns="http://www.w3.org/2000/svg">
<path d="M10 6.01562C11.0938 6.01562 12.0312 6.40625 12.8125 7.1875C13.5938 7.96875 13.9844 8.90625 13.9844 10C13.9844 11.0938 13.5938 12.0312 12.8125 12.8125C12.0312 13.5938 11.0938 13.9844 10 13.9844C8.90625 13.9844 7.96875 13.5938 7.1875 12.8125C6.40625 12.0312 6.01562 11.0938 6.01562 10C6.01562 8.90625 6.40625 7.96875 7.1875 7.1875C7.96875 6.40625 8.90625 6.01562 10 6.01562ZM10 7.98438C9.4375 7.98438 8.95312 8.1875 8.54688 8.59375C8.17188 8.96875 7.98438 9.4375 7.98438 10C7.98438 10.5625 8.17188 11.0469 8.54688 11.4531C8.95312 11.8281 9.4375 12.0156 10 12.0156C10.5625 12.0156 11.0312 11.8281 11.4062 11.4531C11.8125 11.0469 12.0156 10.5625 12.0156 10C12.0156 9.4375 11.8125 8.96875 11.4062 8.59375C11.0312 8.1875 10.5625 7.98438 10 7.98438ZM7.98438 19.9844C7.85938 19.9844 7.75 19.9375 7.65625 19.8438C7.5625 19.7812 7.51562 19.6875 7.51562 19.5625L7.14062 16.9375C6.57812 16.7188 6.01562 16.3906 5.45312 15.9531L2.96875 16.9375C2.84375 17 2.71875 17.0156 2.59375 16.9844C2.46875 16.9219 2.39062 16.8438 2.35938 16.75L0.34375 13.2812C0.28125 13.1562 0.25 13.0469 0.25 12.9531C0.28125 12.8281 0.34375 12.7188 0.4375 12.625L2.54688 10.9844L2.5 10L2.54688 9.01562L0.4375 7.375C0.34375 7.28125 0.28125 7.1875 0.25 7.09375C0.25 6.96875 0.28125 6.84375 0.34375 6.71875L2.35938 3.25C2.39062 3.15625 2.46875 3.09375 2.59375 3.0625C2.71875 3 2.84375 3 2.96875 3.0625L5.45312 4.04688C6.01562 3.60938 6.57812 3.28125 7.14062 3.0625L7.51562 0.4375C7.51562 0.3125 7.5625 0.21875 7.65625 0.15625C7.75 0.0625 7.85938 0.015625 7.98438 0.015625H12.0156C12.1406 0.015625 12.25 0.0625 12.3438 0.15625C12.4375 0.21875 12.4844 0.3125 12.4844 0.4375L12.8594 3.0625C13.4219 3.28125 13.9844 3.60938 14.5469 4.04688L17.0312 3.0625C17.1562 3 17.2812 3 17.4062 3.0625C17.5312 3.09375 17.6094 3.15625 17.6406 3.25L19.6562 6.71875C19.7188 6.84375 19.7344 6.96875 19.7031 7.09375C19.7031 7.1875 19.6562 7.28125 19.5625 7.375L17.4531 9.01562L17.5 10L17.4531 10.9844L19.5625 12.625C19.6562 12.7188 19.7031 12.8281 19.7031 12.9531C19.7344 13.0469 19.7188 13.1562 19.6562 13.2812L17.6406 16.75C17.6094 16.8438 17.5312 16.9219 17.4062 16.9844C17.2812 17.0156 17.1562 17 17.0312 16.9375L14.5469 15.9531C13.9844 16.3906 13.4219 16.7188 12.8594 16.9375L12.4844 19.5625C12.4844 19.6875 12.4375 19.7812 12.3438 19.8438C12.25 19.9375 12.1406 19.9844 12.0156 19.9844H7.98438ZM9.25 1.98438L8.875 4.60938C7.65625 4.85937 6.64062 5.45312 5.82812 6.39062L3.4375 5.35938L2.6875 6.67188L4.79688 8.21875C4.39062 9.40625 4.39062 10.5938 4.79688 11.7812L2.6875 13.375L3.4375 14.6406L5.875 13.6094C6.6875 14.5469 7.6875 15.1406 8.875 15.3906L9.25 18.0156H10.75L11.125 15.3906C12.3125 15.1406 13.3125 14.5469 14.125 13.6094L16.5625 14.6406L17.3125 13.375L15.2031 11.8281C15.6094 10.6094 15.6094 9.40625 15.2031 8.21875L17.3125 6.67188L16.5625 5.35938L14.1719 6.39062C13.3594 5.45312 12.3438 4.85937 11.125 4.60938L10.75 1.98438H9.25Z" fill="currentColor"/>
</svg>
