<svg width="12" height="13" viewBox="0 0 12 13" fill="none" xmlns="http://www.w3.org/2000/svg">
<path d="M0.175781 0.925781H5.42578V6.17578H0.175781V0.925781ZM9.19922 0.925781C9.92839 0.925781 10.5482 1.18099 11.0586 1.69141C11.569 2.20182 11.8242 2.82161 11.8242 3.55078C11.8242 4.27995 11.569 4.89974 11.0586 5.41016C10.5482 5.92057 9.92839 6.17578 9.19922 6.17578C8.47005 6.17578 7.85026 5.92057 7.33984 5.41016C6.82943 4.89974 6.57422 4.27995 6.57422 3.55078C6.57422 2.82161 6.82943 2.20182 7.33984 1.69141C7.85026 1.18099 8.47005 0.925781 9.19922 0.925781ZM2.80078 7.92578L5.42578 12.5742H0.175781L2.80078 7.92578ZM10.0742 9.67578H11.8242V10.8242H10.0742V12.5742H8.92578V10.8242H7.17578V9.67578H8.92578V7.92578H10.0742V9.67578Z" fill="currentColor"/>
</svg>
