<svg width="6" height="9" viewBox="0 0 6 9" fill="none" xmlns="http://www.w3.org/2000/svg">
<path d="M5.50781 4.5C5.50781 5.09375 5.3125 5.625 4.92188 6.09375C4.54688 6.54688 4.07031 6.83594 3.49219 6.96094V9H2.50781V6.96094C1.92969 6.83594 1.44531 6.54688 1.05469 6.09375C0.679688 5.625 0.492188 5.09375 0.492188 4.5C0.492188 3.90625 0.679688 3.38281 1.05469 2.92969C1.44531 2.46094 1.92969 2.16406 2.50781 2.03906V0H3.49219V2.03906C4.07031 2.16406 4.54688 2.46094 4.92188 2.92969C5.3125 3.38281 5.50781 3.90625 5.50781 4.5ZM3 3C2.57812 3 2.21875 3.14844 1.92188 3.44531C1.64062 3.72656 1.5 4.07812 1.5 4.5C1.5 4.92188 1.64062 5.28125 1.92188 5.57812C2.21875 5.85938 2.57812 6 3 6C3.42188 6 3.77344 5.85938 4.05469 5.57812C4.35156 5.28125 4.5 4.92188 4.5 4.5C4.5 4.07812 4.35156 3.72656 4.05469 3.44531C3.77344 3.14844 3.42188 3 3 3Z" fill="currentColor"/>
</svg>
