<svg width="10" height="11" viewBox="0 0 10 11" fill="none" xmlns="http://www.w3.org/2000/svg">
<path d="M5.49219 6.50781C4.75781 6.50781 4.17188 6.63281 3.73438 6.88281C3.42188 7.07031 3.21094 7.3125 3.10156 7.60938C3.36719 7.73438 3.57812 7.92188 3.73438 8.17188C3.90625 8.42188 3.99219 8.69531 3.99219 8.99219C3.99219 9.41406 3.84375 9.76562 3.54688 10.0469C3.26562 10.3438 2.91406 10.4922 2.49219 10.4922C2.08594 10.4922 1.73438 10.3438 1.4375 10.0469C1.14062 9.76562 0.992188 9.41406 0.992188 8.99219C0.992188 8.67969 1.08594 8.39844 1.27344 8.14844C1.46094 7.88281 1.70312 7.69531 2 7.58594V3.41406C1.70312 3.30469 1.46094 3.125 1.27344 2.875C1.08594 2.60938 0.992188 2.32031 0.992188 2.00781C0.992188 1.58594 1.14062 1.23438 1.4375 0.953125C1.73438 0.65625 2.08594 0.507812 2.49219 0.507812C2.91406 0.507812 3.26562 0.65625 3.54688 0.953125C3.84375 1.23438 3.99219 1.58594 3.99219 2.00781C3.99219 2.32031 3.89844 2.60938 3.71094 2.875C3.53906 3.125 3.30469 3.30469 3.00781 3.41406V6.0625C3.50781 5.6875 4.17188 5.5 5 5.5C5.59375 5.5 6.0625 5.36719 6.40625 5.10156C6.65625 4.91406 6.82812 4.67188 6.92188 4.375C6.65625 4.26562 6.4375 4.08594 6.26562 3.83594C6.09375 3.58594 6.00781 3.30469 6.00781 2.99219C6.00781 2.58594 6.14844 2.23438 6.42969 1.9375C6.72656 1.64062 7.07812 1.49219 7.48438 1.49219C7.90625 1.49219 8.26562 1.64062 8.5625 1.9375C8.85938 2.23438 9.00781 2.58594 9.00781 2.99219C9.00781 3.33594 8.90625 3.64062 8.70312 3.90625C8.51562 4.17188 8.26562 4.34375 7.95312 4.42188C7.85938 4.95312 7.66406 5.39062 7.36719 5.73438C6.92969 6.25 6.30469 6.50781 5.49219 6.50781ZM2.49219 8.5C2.35156 8.5 2.23438 8.54688 2.14062 8.64062C2.04688 8.73438 2 8.85156 2 8.99219C2 9.13281 2.04688 9.25781 2.14062 9.36719C2.23438 9.46094 2.35156 9.50781 2.49219 9.50781C2.63281 9.50781 2.75 9.46094 2.84375 9.36719C2.95312 9.25781 3.00781 9.13281 3.00781 8.99219C3.00781 8.85156 2.95312 8.73438 2.84375 8.64062C2.75 8.54688 2.63281 8.5 2.49219 8.5ZM2.49219 1.49219C2.35156 1.49219 2.23438 1.54688 2.14062 1.65625C2.04688 1.75 2 1.86719 2 2.00781C2 2.14844 2.04688 2.26562 2.14062 2.35938C2.23438 2.45312 2.35156 2.5 2.49219 2.5C2.63281 2.5 2.75 2.45312 2.84375 2.35938C2.95312 2.26562 3.00781 2.14844 3.00781 2.00781C3.00781 1.86719 2.95312 1.75 2.84375 1.65625C2.75 1.54688 2.63281 1.49219 2.49219 1.49219ZM7.50781 2.5C7.36719 2.5 7.24219 2.54688 7.13281 2.64062C7.03906 2.73438 6.99219 2.85156 6.99219 2.99219C6.99219 3.13281 7.03906 3.25781 7.13281 3.36719C7.24219 3.46094 7.36719 3.50781 7.50781 3.50781C7.64844 3.50781 7.76562 3.46094 7.85938 3.36719C7.95312 3.25781 8 3.13281 8 2.99219C8 2.85156 7.95312 2.73438 7.85938 2.64062C7.76562 2.54688 7.64844 2.5 7.50781 2.5Z" fill="currentColor"/>
</svg>
