<svg width="14" height="14" viewBox="0 0 14 14" fill="none" xmlns="http://www.w3.org/2000/svg">
<path d="M7 0.34375C6.125 0.34375 5.27083 0.510417 4.4375 0.84375C3.625 1.17708 2.90625 1.65625 2.28125 2.28125C1.65625 2.90625 1.17708 3.63542 0.84375 4.46875C0.510417 5.28125 0.34375 6.125 0.34375 7C0.34375 7.875 0.510417 8.72917 0.84375 9.5625C1.17708 10.375 1.65625 11.0938 2.28125 11.7188C2.90625 12.3438 3.625 12.8229 4.4375 13.1562C5.27083 13.4896 6.125 13.6562 7 13.6562C7.875 13.6562 8.71875 13.4896 9.53125 13.1562C10.3646 12.8229 11.0938 12.3438 11.7188 11.7188C12.3438 11.0938 12.8229 10.375 13.1562 9.5625C13.4896 8.72917 13.6562 7.875 13.6562 7C13.6562 6.125 13.4896 5.28125 13.1562 4.46875C12.8229 3.63542 12.3438 2.90625 11.7188 2.28125C11.0938 1.65625 10.3646 1.17708 9.53125 0.84375C8.71875 0.510417 7.875 0.34375 7 0.34375ZM7 1.65625C7.95833 1.65625 8.84375 1.89583 9.65625 2.375C10.4896 2.85417 11.1458 3.51042 11.625 4.34375C12.1042 5.15625 12.3438 6.04167 12.3438 7C12.3438 7.95833 12.1042 8.85417 11.625 9.6875C11.1458 10.5 10.4896 11.1458 9.65625 11.625C8.84375 12.1042 7.95833 12.3438 7 12.3438C6.04167 12.3438 5.14583 12.1042 4.3125 11.625C3.5 11.1458 2.85417 10.5 2.375 9.6875C1.89583 8.85417 1.65625 7.95833 1.65625 7C1.65625 6.04167 1.89583 5.15625 2.375 4.34375C2.85417 3.51042 3.5 2.85417 4.3125 2.375C5.14583 1.89583 6.04167 1.65625 7 1.65625ZM5 5V9H9V5H5Z" fill="currentColor"/>
</svg>
