<svg width="11" height="12" viewBox="0 0 11 12" fill="none" xmlns="http://www.w3.org/2000/svg">
<path d="M10.6035 5.89648L5.72852 1.02148C5.50846 0.818359 5.25456 0.716797 4.9668 0.716797H1.1582C0.870443 0.716797 0.616536 0.826823 0.396484 1.04688C0.193359 1.25 0.0917969 1.49544 0.0917969 1.7832V5.5918C0.0917969 5.87956 0.193359 6.13346 0.396484 6.35352L5.27148 11.2285C5.49154 11.4316 5.74544 11.5332 6.0332 11.5332C6.33789 11.5332 6.5918 11.4316 6.79492 11.2285L10.6035 7.41992C10.8066 7.2168 10.9082 6.97135 10.9082 6.68359C10.9082 6.37891 10.8066 6.11654 10.6035 5.89648ZM6.0332 10.4668L1.1582 5.5918V1.7832H4.9668L9.8418 6.6582L6.0332 10.4668ZM2.5293 2.3418C2.74935 2.3418 2.93555 2.41797 3.08789 2.57031C3.25716 2.72266 3.3418 2.91732 3.3418 3.1543C3.3418 3.37435 3.25716 3.56901 3.08789 3.73828C2.93555 3.89062 2.74089 3.9668 2.50391 3.9668C2.28385 3.9668 2.09766 3.89062 1.94531 3.73828C1.79297 3.56901 1.7168 3.37435 1.7168 3.1543C1.7168 2.91732 1.79297 2.72266 1.94531 2.57031C2.09766 2.41797 2.29232 2.3418 2.5293 2.3418Z" fill="currentColor"/>
</svg>
