<svg width="14" height="14" viewBox="0 0 14 14" fill="none" xmlns="http://www.w3.org/2000/svg">
<path d="M13.2812 6.71875L7.28125 0.71875C7.01042 0.46875 6.69792 0.34375 6.34375 0.34375H1.65625C1.30208 0.34375 0.989583 0.479167 0.71875 0.75C0.46875 1 0.34375 1.30208 0.34375 1.65625V6.34375C0.34375 6.69792 0.46875 7.01042 0.71875 7.28125L1 7.53125C1.60417 7.17708 2.27083 7 3 7C3.72917 7 4.39583 7.17708 5 7.53125C5.625 7.88542 6.11458 8.375 6.46875 9C6.82292 9.60417 7 10.2708 7 11C7 11.7292 6.82292 12.3958 6.46875 13L6.71875 13.2812C6.98958 13.5312 7.30208 13.6562 7.65625 13.6562C8.03125 13.6562 8.34375 13.5312 8.59375 13.2812L13.2812 8.59375C13.5312 8.34375 13.6562 8.04167 13.6562 7.6875C13.6562 7.3125 13.5312 6.98958 13.2812 6.71875ZM2.65625 3.65625C2.38542 3.65625 2.14583 3.5625 1.9375 3.375C1.75 3.1875 1.65625 2.95833 1.65625 2.6875C1.65625 2.39583 1.75 2.15625 1.9375 1.96875C2.14583 1.76042 2.38542 1.65625 2.65625 1.65625C2.94792 1.65625 3.1875 1.76042 3.375 1.96875C3.5625 2.15625 3.65625 2.39583 3.65625 2.6875C3.65625 2.95833 3.5625 3.1875 3.375 3.375C3.1875 3.5625 2.94792 3.65625 2.65625 3.65625ZM5.65625 11.6562H0.34375V10.3438H5.65625V11.6562Z" fill="currentColor"/>
</svg>
