<svg width="16" height="15" viewBox="0 0 16 15" fill="none" xmlns="http://www.w3.org/2000/svg">
<path d="M2.17969 0H13.8203C14.2891 0 14.6797 0.169271 14.9922 0.507812C15.3307 0.820312 15.5 1.21094 15.5 1.67969V13.3203C15.5 13.7891 15.3307 14.1927 14.9922 14.5312C14.6797 14.8438 14.2891 15 13.8203 15H2.17969C1.71094 15 1.30729 14.8438 0.96875 14.5312C0.65625 14.1927 0.5 13.7891 0.5 13.3203V1.67969C0.5 1.21094 0.65625 0.820312 0.96875 0.507812C1.30729 0.169271 1.71094 0 2.17969 0ZM12.7656 5.27344C13.3385 4.80469 13.6901 4.41406 13.8203 4.10156C13.5078 4.25781 13.1172 4.375 12.6484 4.45312C13.0911 4.11458 13.4036 3.69792 13.5859 3.20312C13.0651 3.48958 12.5833 3.67188 12.1406 3.75C11.724 3.25521 11.1641 3.03385 10.4609 3.08594C9.78385 3.11198 9.22396 3.3724 8.78125 3.86719C8.28646 4.41406 8.13021 5.05208 8.3125 5.78125C7.29688 5.72917 6.39844 5.48177 5.61719 5.03906C4.96615 4.67448 4.32812 4.15365 3.70312 3.47656C3.41667 3.94531 3.35156 4.50521 3.50781 5.15625C3.6901 5.78125 3.97656 6.21094 4.36719 6.44531C4.08073 6.41927 3.76823 6.32812 3.42969 6.17188C3.45573 7.29167 4.02865 8.03385 5.14844 8.39844C4.8099 8.47656 4.4974 8.48958 4.21094 8.4375C4.52344 9.375 5.20052 9.89583 6.24219 10C5.85156 10.3385 5.34375 10.599 4.71875 10.7812C4.11979 10.9375 3.54688 10.9766 3 10.8984C3.54688 11.237 4.06771 11.4974 4.5625 11.6797C5.1875 11.862 5.85156 11.9401 6.55469 11.9141C8.40365 11.8359 9.88802 11.1979 11.0078 10C12.1536 8.77604 12.7396 7.20052 12.7656 5.27344Z" fill="currentColor"/>
</svg>
