<svg width="18" height="9" viewBox="0 0 18 9" fill="none" xmlns="http://www.w3.org/2000/svg">
<path d="M13.957 0.207031C14.6836 0.207031 15.3516 0.394531 15.9609 0.769531C16.5938 1.12109 17.0859 1.61328 17.4375 2.24609C17.8125 2.85547 18 3.52344 18 4.25C18 4.97656 17.8125 5.65625 17.4375 6.28906C17.0859 6.89844 16.5938 7.39062 15.9609 7.76562C15.3516 8.11719 14.6836 8.29297 13.957 8.29297C12.832 8.29297 11.8711 7.89453 11.0742 7.09766L9 5.26953L6.89062 7.13281C6.51562 7.50781 6.08203 7.80078 5.58984 8.01172C5.09766 8.19922 4.58203 8.29297 4.04297 8.29297C3.31641 8.29297 2.63672 8.11719 2.00391 7.76562C1.39453 7.39062 0.902344 6.89844 0.527344 6.28906C0.175781 5.65625 0 4.97656 0 4.25C0 3.52344 0.175781 2.85547 0.527344 2.24609C0.902344 1.61328 1.39453 1.12109 2.00391 0.769531C2.63672 0.394531 3.31641 0.207031 4.04297 0.207031C4.58203 0.207031 5.09766 0.3125 5.58984 0.523438C6.08203 0.734375 6.52734 1.02734 6.92578 1.40234L9 3.23047L11.1094 1.36719C11.4844 0.992188 11.918 0.710938 12.4102 0.523438C12.9023 0.3125 13.418 0.207031 13.957 0.207031ZM5.83594 6.04297L7.875 4.25L5.87109 2.49219C5.35547 1.97656 4.74609 1.71875 4.04297 1.71875C3.33984 1.71875 2.74219 1.96484 2.25 2.45703C1.75781 2.94922 1.51172 3.54688 1.51172 4.25C1.51172 4.95312 1.75781 5.55078 2.25 6.04297C2.74219 6.53516 3.33984 6.78125 4.04297 6.78125C4.74609 6.78125 5.34375 6.53516 5.83594 6.04297ZM12.1641 2.45703L10.125 4.25L12.1289 6.00781C12.6445 6.52344 13.2539 6.78125 13.957 6.78125C14.6602 6.78125 15.2578 6.53516 15.75 6.04297C16.2422 5.55078 16.4883 4.95312 16.4883 4.25C16.4883 3.54688 16.2422 2.94922 15.75 2.45703C15.2578 1.96484 14.6602 1.71875 13.957 1.71875C13.2539 1.71875 12.6562 1.96484 12.1641 2.45703Z" fill="currentColor"/>
</svg>
