<?xml version="1.0" encoding="UTF-8"?>
<svg width="150px" height="150px" viewBox="0 0 150 150" version="1.1" xmlns="http://www.w3.org/2000/svg" xmlns:xlink="http://www.w3.org/1999/xlink">
  <path d="M74.9997978,0 C60.1662013,0 45.6658148,4.39867746 33.3322014,12.6398325 C20.9984871,20.880917 11.3856187,32.5943046 5.70904626,46.2987521 C0.0324967637,60.0033006 -1.45275152,75.0832961 1.44113356,89.6318918 C4.33501864,104.180185 11.4780986,117.544351 21.9669545,128.033169 C32.4558105,138.521987 45.8195109,145.665477 60.368104,148.558979 C74.9165962,151.452481 89.9965705,149.96791 103.700541,144.290837 C117.405116,138.614773 129.118902,129.001368 137.359397,116.66793 C145.6009,104.334492 149.999999,89.8337007 149.999999,75.0000915 C149.977812,55.1154105 142.069115,36.0511769 128.008538,21.9906138 C113.948969,7.9299801 94.8843911,0.0213555361 74.9997978,0 Z M74.9997978,109.086733 C68.2557228,109.086733 61.6631253,107.086798 56.0558372,103.339062 C50.4485491,99.5924365 46.0782933,94.2667392 43.4979323,88.0357761 C40.9175713,81.8049139 40.2429822,74.9487569 41.5593839,68.3343468 C42.8757855,61.7200377 46.1241803,55.6446924 50.8936024,50.8766169 C55.6631254,46.1085415 61.7393683,42.8619497 68.3541529,41.5474184 C74.9688367,40.232988 81.8247549,40.9096176 88.0548957,43.4918839 C94.2849357,46.0741502 99.609439,50.4458694 103.354623,56.0543614 C107.100211,61.6628535 109.09806,68.2559833 109.096043,75.0000915 C109.084949,84.0388305 105.489629,92.704107 99.0971184,99.0945202 C92.70481,105.485236 84.0385244,109.078665 74.9997978,109.086733 Z M7.78540689,75.0000915 C7.80446764,57.8512775 14.3696843,41.3566026 26.1401484,28.8851963 C37.9106126,16.4136891 53.9981844,8.90628735 71.1171542,7.8963352 L71.1171542,33.3300346 C60.7287454,34.2871393 51.0726121,39.0907154 44.0423233,46.7984838 C37.0120346,54.5063531 33.1147677,64.5625074 33.1147677,74.9950488 C33.1147677,85.4274895 37.0120346,95.4836437 44.0423233,103.191816 C51.0726121,110.89908 60.7287454,115.702757 71.1171542,116.659861 L71.1171542,142.093228 C53.999092,141.086705 37.9115203,133.581149 26.1408544,121.111558 C14.3701885,108.640958 7.80461891,92.1478971 7.78540689,75.0000915 Z M78.8924256,142.093228 L78.8924256,116.659861 C89.2809353,115.702757 98.9370687,110.89908 105.96766,103.191816 C112.997949,95.4836437 116.894812,85.4274895 116.894812,74.9950488 C116.894812,64.5625074 112.997949,54.5063531 105.96766,46.7984838 C98.9370687,39.0907154 89.2809353,34.2871393 78.8924256,33.3300346 L78.8924256,7.8963352 C96.0060504,8.90295916 112.088277,16.4106635 123.848455,28.8835826 C135.60964,41.3565018 142.159881,57.8517818 142.159881,74.9950488 C142.159881,92.1382151 135.60964,108.633898 123.848455,121.106515 C112.088277,133.579132 96.0060504,141.086705 78.8924256,142.093228 Z" id="Shape" fill="#1D252C" fill-rule="nonzero"></path>
</svg>
