<?xml version="1.0" encoding="UTF-8"?>
<svg viewBox="4 4 44 16" version="1.1" xmlns="http://www.w3.org/2000/svg" xmlns:xlink="http://www.w3.org/1999/xlink">
    <g fill="black">
        <path d="M20.69 19.954c.13-.22.254-.439.394-.658.404-.632.799-1.273 1.229-1.887a16.896 16.896 0 0 1 3.089-3.29c.737-.606 1.527-1.142 2.325-1.677.535-.36 1.115-.65 1.676-.965.044-.027.106-.053.14-.07.247-.132.273-.185.229-.378-.079-.395-.158-.79-.263-1.185-.15-.57-.325-1.132-.474-1.702-.097-.342.079-.72.412-.921.29-.176.702-.14.966.052.236.176.324.439.395.702.184.64.377 1.273.517 1.922.158.746.272 1.51.395 2.264.228 1.44.255 2.879.202 4.327-.035.956-.167 1.913-.255 2.86-.008.097-.035.202-.043.299-.01.088-.027.175-.035.263 0 .026.017.053.035.061a.054.054 0 0 0 .061-.008c.062-.053.15-.185.22-.299.324-.579.623-1.28.92-1.948.203-.447.36-.913.519-1.378.149-.43.28-.86.395-1.29.166-.632.324-1.255.447-1.895.202-1.045.342-2.098.351-3.16 0-.184.105-.236.255-.254a12.51 12.51 0 0 1 1.746-.254 19.418 19.418 0 0 1 3.572.043c.667.07 1.334.15 1.992.29.746.158 1.483.369 2.22.588.526.158 1.053.351 1.57.544.3.114.58.272.87.413.43.21.86.43 1.298.64.035.018.08.009.167.018-.07-.106-.105-.185-.167-.237-.983-.904-1.965-1.808-3.08-2.545a49.468 49.468 0 0 0-2.738-1.729c-.676-.395-1.404-.71-2.115-1.044a33.07 33.07 0 0 0-1.816-.764c-.5-.193-1.01-.36-1.519-.509a33.941 33.941 0 0 0-1.623-.43c-1.185-.29-2.387-.465-3.598-.614-1.44-.167-2.879-.175-4.309-.114-.948.035-1.895.15-2.834.29-.896.131-1.782.307-2.66.526-.877.22-1.728.518-2.597.781-.246.08-.184.167-.132.307.14.386.29.773.422 1.159.149.43.298.85.42 1.28.168.589.325 1.177.457 1.765.097.412.15.833.22 1.255.254 1.456.342 2.922.342 4.396 0 1.159-.132 2.317-.281 3.467-.018.158-.044.307-.053.465-.008.07-.043.263.035.272.036.008.062-.009.088-.044ZM4.2 19.927c.184-.043.377-.078.57-.131.781-.21 1.562-.404 2.335-.632a17.173 17.173 0 0 0 1.605-.553 30.133 30.133 0 0 0 1.957-.895c.562-.28 1.124-.562 1.659-.895a39.92 39.92 0 0 0 2.062-1.37 22.49 22.49 0 0 0 2.879-2.439c.526-.526 1.009-1.097 1.51-1.65.157-.175.306-.35.43-.544.104-.14.087-.245.06-.36a34.94 34.94 0 0 0-.49-1.886c-.168-.553-.387-1.097-.589-1.641a23.56 23.56 0 0 0-.026-.08c-.176-.517-.202-.508-.667-.262-.869.447-1.764.877-2.598 1.377a35.775 35.775 0 0 0-2.545 1.712A24.746 24.746 0 0 0 8.72 12.95c-.632.684-1.21 1.413-1.79 2.132-.763.948-1.413 1.984-2.027 3.028-.263.447-.492.913-.737 1.369-.035.061-.106.175-.132.246-.07.149-.035.245.167.201Z"/>
        <path d="M41.47 18.207a34.86 34.86 0 0 0-.421-2.325c-.15-.676-.36-1.334-.57-1.992-.211-.65-.475-1.281-.712-1.922a8.15 8.15 0 0 0-.193-.491c-.07-.167-.175-.264-.377-.264-.676.01-1.36 0-2.036 0h-.369c-.061 0-.096.07-.052.123.079.088.175.193.21.237.667.702 1.247 1.466 1.8 2.264a16.933 16.933 0 0 1 1.562 2.738c.342.764.614 1.562.903 2.352.07.202.114.413.185.606a.62.62 0 0 0 .07.158.099.099 0 0 0 .132.035c.026-.01.035-.035.035-.062-.053-.482-.088-.974-.167-1.457ZM62.927 4.9c1.48 0 2.773.3 3.88.9 1.12.587 1.98 1.413 2.58 2.48.6 1.067.9 2.287.9 3.66 0 1.36-.307 2.573-.92 3.64-.6 1.067-1.46 1.907-2.58 2.52-1.107.6-2.393.9-3.86.9h-5.58V4.9h5.58Zm-.3 10.64c1.147 0 2.047-.313 2.7-.94s.98-1.513.98-2.66c0-1.16-.327-2.053-.98-2.68-.653-.64-1.553-.96-2.7-.96h-1.36v7.24h1.36Zm8.787-2.16c0-1.16.207-2.173.62-3.04.427-.867 1-1.533 1.72-2a4.451 4.451 0 0 1 2.44-.7c.773 0 1.44.153 2 .46.56.307.993.72 1.3 1.24V7.78h3.92V19h-3.92v-1.56c-.307.52-.747.933-1.32 1.24-.56.307-1.22.46-1.98.46a4.451 4.451 0 0 1-2.44-.7c-.72-.467-1.293-1.133-1.72-2-.413-.88-.62-1.9-.62-3.06Zm8.08 0c0-.72-.2-1.287-.6-1.7a1.892 1.892 0 0 0-1.44-.62c-.587 0-1.073.207-1.46.62-.387.4-.58.967-.58 1.7 0 .72.193 1.293.58 1.72.387.413.873.62 1.46.62.573 0 1.053-.207 1.44-.62.4-.413.6-.987.6-1.72Zm12.774 2.28V19h-1.7c-2.867 0-4.3-1.42-4.3-4.26v-3.7h-1.38V7.78h1.38V5.06h3.94v2.72h2.04v3.26h-2.04v3.76c0 .307.067.527.2.66.147.133.386.2.72.2h1.14Zm1.158-2.28c0-1.16.206-2.173.62-3.04.426-.867 1-1.533 1.72-2a4.452 4.452 0 0 1 2.44-.7c.773 0 1.44.153 2 .46.56.307.993.72 1.3 1.24V7.78h3.92V19h-3.92v-1.56a3.3 3.3 0 0 1-1.32 1.24c-.56.307-1.22.46-1.98.46a4.451 4.451 0 0 1-2.44-.7c-.72-.467-1.294-1.133-1.72-2-.414-.88-.62-1.9-.62-3.06Zm8.08 0c0-.72-.2-1.287-.6-1.7a1.893 1.893 0 0 0-1.44-.62c-.587 0-1.073.207-1.46.62-.387.4-.58.967-.58 1.7 0 .72.193 1.293.58 1.72.386.413.873.62 1.46.62.573 0 1.053-.207 1.44-.62.4-.413.6-.987.6-1.72ZM107.24 12c0-1.373.306-2.6.92-3.68a6.634 6.634 0 0 1 2.54-2.54c1.08-.613 2.286-.92 3.62-.92 1.56 0 2.926.4 4.1 1.2 1.173.8 1.993 1.907 2.46 3.32h-3.22c-.32-.667-.774-1.167-1.36-1.5-.574-.333-1.24-.5-2-.5-.814 0-1.54.193-2.18.58-.627.373-1.12.907-1.48 1.6-.347.693-.52 1.507-.52 2.44 0 .92.173 1.733.52 2.44.36.693.853 1.233 1.48 1.62.64.373 1.366.56 2.18.56.76 0 1.426-.167 2-.5.586-.347 1.04-.853 1.36-1.52h3.22c-.467 1.427-1.287 2.54-2.46 3.34-1.16.787-2.527 1.18-4.1 1.18-1.334 0-2.54-.3-3.62-.9a6.821 6.821 0 0 1-2.54-2.54c-.614-1.08-.92-2.307-.92-3.68Zm18.831-2.36a3.966 3.966 0 0 1 1.4-1.38c.587-.333 1.253-.5 2-.5v2.94h-.74c-.88 0-1.547.207-2 .62-.44.413-.66 1.133-.66 2.16V19h-2.8V7.92h2.8v1.72Zm15.746-1.72V19h-2.82v-1.4c-.36.48-.833.86-1.42 1.14-.573.267-1.2.4-1.88.4-.867 0-1.633-.18-2.3-.54a4.02 4.02 0 0 1-1.58-1.62c-.373-.72-.56-1.573-.56-2.56v-6.5h2.8v6.1c0 .88.22 1.56.66 2.04.44.467 1.04.7 1.8.7.773 0 1.38-.233 1.82-.7.44-.48.66-1.16.66-2.04v-6.1h2.82Zm8.903-.16c1.32 0 2.386.42 3.2 1.26.813.827 1.22 1.987 1.22 3.48V19h-2.8v-6.12c0-.88-.22-1.553-.66-2.02-.44-.48-1.04-.72-1.8-.72-.774 0-1.387.24-1.84.72-.44.467-.66 1.14-.66 2.02V19h-2.8V7.92h2.8V9.3c.373-.48.846-.853 1.42-1.12a4.395 4.395 0 0 1 1.92-.42Zm6.362 5.7c0-1.147.234-2.147.7-3a4.926 4.926 0 0 1 1.94-2c.827-.48 1.774-.72 2.84-.72 1.374 0 2.507.347 3.4 1.04.907.68 1.514 1.64 1.82 2.88h-3.02a2.135 2.135 0 0 0-.82-1.12c-.373-.28-.84-.42-1.4-.42-.8 0-1.433.293-1.9.88-.466.573-.7 1.393-.7 2.46 0 1.053.234 1.873.7 2.46.467.573 1.1.86 1.9.86 1.134 0 1.874-.507 2.22-1.52h3.02c-.306 1.2-.913 2.153-1.82 2.86-.906.707-2.04 1.06-3.4 1.06-1.066 0-2.013-.233-2.84-.7a5.097 5.097 0 0 1-1.94-2c-.466-.867-.7-1.873-.7-3.02Zm18.992-5.7c.84 0 1.586.187 2.24.56.653.36 1.16.9 1.52 1.62.373.707.56 1.56.56 2.56V19h-2.8v-6.12c0-.88-.22-1.553-.66-2.02-.44-.48-1.04-.72-1.8-.72-.774 0-1.387.24-1.84.72-.44.467-.66 1.14-.66 2.02V19h-2.8V4.2h2.8v5.1c.36-.48.84-.853 1.44-1.12.6-.28 1.266-.42 2-.42Zm8.222 11.38c-.506 0-.926-.153-1.26-.46-.32-.32-.48-.713-.48-1.18 0-.467.16-.853.48-1.16.334-.32.754-.48 1.26-.48.494 0 .9.16 1.22.48.32.307.48.693.48 1.16 0 .467-.16.86-.48 1.18-.32.307-.726.46-1.22.46Zm5.376-12.54c-.494 0-.907-.153-1.24-.46-.32-.32-.48-.713-.48-1.18 0-.467.16-.853.48-1.16.333-.32.746-.48 1.24-.48.493 0 .9.16 1.22.48.333.307.5.693.5 1.16 0 .467-.167.86-.5 1.18-.32.307-.727.46-1.22.46Zm1.38 1.32V19h-2.8V7.92h2.8Zm7.686 11.26c-1.067 0-2.027-.233-2.88-.7a5.25 5.25 0 0 1-2.02-2.02c-.48-.867-.72-1.867-.72-3s.247-2.133.74-3a5.21 5.21 0 0 1 2.06-2c.867-.48 1.833-.72 2.9-.72s2.033.24 2.9.72a5.072 5.072 0 0 1 2.04 2c.507.867.76 1.867.76 3s-.26 2.133-.78 3a5.316 5.316 0 0 1-2.08 2.02c-.867.467-1.84.7-2.92.7Zm0-2.44c.507 0 .98-.12 1.42-.36a2.74 2.74 0 0 0 1.08-1.12c.267-.493.4-1.093.4-1.8 0-1.053-.28-1.86-.84-2.42a2.682 2.682 0 0 0-2.02-.86c-.8 0-1.473.287-2.02.86-.533.56-.8 1.367-.8 2.42s.26 1.867.78 2.44c.533.56 1.2.84 2 .84Z"/>
    </g>
</svg>
