<svg width="82" height="19" viewBox="0 0 82 19" fill="none" xmlns="http://www.w3.org/2000/svg">
<path d="M9.93377 15.2229C10.7351 14.4055 11.1358 13.3157 11.1358 11.9534C11.1358 10.591 10.7351 9.50919 9.93377 8.70783C9.14844 7.90646 8.21084 7.50578 7.12098 7.50578C6.03112 7.50578 5.08551 7.89845 4.28414 8.68378C3.4988 9.46912 3.10613 10.543 3.10613 11.9053C3.10613 13.2676 3.4988 14.3655 4.28414 15.1989C5.08551 16.0163 6.03112 16.425 7.12098 16.425C8.21084 16.425 9.14844 16.0243 9.93377 15.2229ZM6.54399 18.805C4.78099 18.805 3.29846 18.1639 2.09641 16.8818C0.89436 15.5835 0.293335 13.9327 0.293335 11.9293C0.293335 9.90988 0.886346 8.27509 2.07237 7.02496C3.27442 5.7588 4.76496 5.12572 6.54399 5.12572C7.58577 5.12572 8.49933 5.36613 9.28467 5.84695C10.086 6.31174 10.7031 6.92879 11.1358 7.6981V0.79834H13.9005V18.5887H11.1358V16.1125C10.6871 16.9298 10.07 17.587 9.28467 18.0838C8.49933 18.5646 7.58577 18.805 6.54399 18.805Z" fill="#303340"/>
<path d="M16.8993 9.14056C16.8993 8.01865 17.3721 7.07304 18.3177 6.30373C19.2633 5.51839 20.5054 5.12572 22.044 5.12572C23.5827 5.12572 24.8008 5.51037 25.6983 6.27969C26.6118 7.03297 27.1007 8.06673 27.1648 9.38097H24.352C24.3039 8.72385 24.0715 8.21098 23.6548 7.84235C23.2541 7.47372 22.6851 7.28941 21.9479 7.28941C21.2106 7.28941 20.6336 7.45769 20.2169 7.79427C19.8002 8.11481 19.5919 8.54755 19.5919 9.09248C19.5919 9.62138 19.8563 10.0381 20.3852 10.3426C20.9141 10.6471 21.5552 10.8715 22.3085 11.0158C23.0778 11.16 23.8391 11.3363 24.5924 11.5447C25.3617 11.753 26.0108 12.1377 26.5397 12.6986C27.0686 13.2436 27.3331 13.9808 27.3331 14.9104C27.3331 16.0644 26.8442 17.002 25.8666 17.7232C24.9049 18.4444 23.6628 18.805 22.1402 18.805C20.6176 18.805 19.3835 18.4364 18.4379 17.6992C17.4923 16.9619 16.9714 15.9121 16.8752 14.5498H19.7121C19.7602 15.2069 20.0006 15.7198 20.4333 16.0884C20.866 16.457 21.451 16.6414 22.1883 16.6414C22.9416 16.6414 23.5346 16.4811 23.9673 16.1605C24.4161 15.824 24.6405 15.3832 24.6405 14.8383C24.6405 14.2934 24.376 13.8686 23.8471 13.5641C23.3182 13.2596 22.6691 13.0352 21.8998 12.891C21.1465 12.7307 20.3852 12.5544 19.6159 12.3621C18.8626 12.1537 18.2215 11.7851 17.6926 11.2562C17.1637 10.7273 16.8993 10.0221 16.8993 9.14056Z" fill="#303340"/>
<path d="M36.7615 7.5779H33.54V14.9104C33.54 15.4072 33.6522 15.7679 33.8765 15.9922C34.1169 16.2006 34.5176 16.3048 35.0786 16.3048H36.7615V18.5887H34.5978C32.0494 18.5887 30.7752 17.3626 30.7752 14.9104V7.5779H29.2126V5.34209H30.7752V2.04847H33.54V5.34209H36.7615V7.5779Z" fill="#303340"/>
<path d="M48.0143 15.2229C48.8157 14.4055 49.2164 13.3157 49.2164 11.9534C49.2164 10.591 48.8157 9.50919 48.0143 8.70783C47.229 7.90646 46.2914 7.50578 45.2015 7.50578C44.1117 7.50578 43.1661 7.89845 42.3647 8.68378C41.5794 9.46912 41.1867 10.543 41.1867 11.9053C41.1867 13.2676 41.5794 14.3655 42.3647 15.1989C43.1661 16.0163 44.1117 16.425 45.2015 16.425C46.2914 16.425 47.229 16.0243 48.0143 15.2229ZM44.6245 18.805C42.8615 18.805 41.379 18.1639 40.177 16.8818C38.9749 15.5835 38.3739 13.9327 38.3739 11.9293C38.3739 9.90988 38.9669 8.27509 40.1529 7.02496C41.355 5.7588 42.8455 5.12572 44.6245 5.12572C45.6663 5.12572 46.5799 5.36613 47.3652 5.84695C48.1666 6.31174 48.7836 6.92879 49.2164 7.6981V5.34209H51.9811V18.5887H49.2164V16.1125C48.7676 16.9298 48.1506 17.587 47.3652 18.0838C46.5799 18.5646 45.6663 18.805 44.6245 18.805Z" fill="#303340"/>
<path d="M61.1584 18.805C59.2351 18.805 57.6724 18.18 56.4704 16.9298C55.2683 15.6797 54.6673 14.0289 54.6673 11.9774C54.6673 9.90988 55.2683 8.25105 56.4704 7.00091C57.6885 5.75078 59.2511 5.12572 61.1584 5.12572C62.7611 5.12572 64.0834 5.51037 65.1251 6.27969C66.1829 7.03297 66.8962 8.11481 67.2648 9.52522H64.3077C63.8109 8.13084 62.7611 7.43365 61.1584 7.43365C60.0365 7.43365 59.1389 7.83434 58.4658 8.6357C57.8087 9.42104 57.4801 10.5269 57.4801 11.9534C57.4801 13.3798 57.8087 14.4937 58.4658 15.2951C59.1389 16.0964 60.0365 16.4971 61.1584 16.4971C62.7451 16.4971 63.7949 15.7999 64.3077 14.4055H67.2648C66.8801 15.7518 66.1589 16.8257 65.1011 17.627C64.0433 18.4124 62.7291 18.805 61.1584 18.805Z" fill="#303340"/>
<path d="M72.7367 18.5887H69.9961V0.79834H72.7367V11.136L77.5449 5.34209H81.3434L75.237 11.9774L81.3434 18.5887H77.6411L72.7367 12.891V18.5887Z" fill="#303340"/>
</svg>
