<svg width="242" height="242" viewBox="0 0 242 242" fill="none" xmlns="http://www.w3.org/2000/svg">
<g clip-path="url(#clip0_867_1236)">
<path d="M242 0H0V242H242V0Z" fill="#E0FF4F"/>
<path fill-rule="evenodd" clip-rule="evenodd" d="M116.573 76.0679L147.83 148.187C155.675 166.259 170.409 164.361 170.659 164.328V59.6529H195.46V134.331C195.46 162.644 170.985 164.307 170.662 164.328C170.662 174.602 162.553 184.207 150.743 184.207C138.933 184.207 130.587 177.633 125.47 165.981L94.2129 93.8615C86.3002 75.6349 71.3804 77.7213 71.3804 77.7213C71.3804 67.4466 79.4898 57.8412 91.2998 57.8412C103.11 57.8412 111.455 64.4154 116.573 76.0679ZM46.5391 107.718V182.396H71.3399V77.721C71.3399 77.721 46.5391 79.217 46.5391 107.718Z" fill="#052B42"/>
</g>
<defs>
<clipPath id="clip0_867_1236">
<rect width="242" height="242" rx="121" fill="white"/>
</clipPath>
</defs>
</svg>
