<svg id="Layer_1" data-name="Layer 1" xmlns="http://www.w3.org/2000/svg" xmlns:xlink="http://www.w3.org/1999/xlink" viewBox="-80 -80 860 920"><defs><style>.cls-1{fill:url(#linear-gradient);}.cls-2{fill:url(#linear-gradient-2);}.cls-3{fill:url(#linear-gradient-3);}.cls-4{fill:url(#linear-gradient-4);}</style><linearGradient id="linear-gradient" x1="992.35" y1="1489.22" x2="836.76" y2="1489.59" gradientTransform="matrix(0.57, -0.01, -0.01, -0.99, 80.02, 2254.75)" gradientUnits="userSpaceOnUse"><stop offset="0" stop-color="#aed581"/><stop offset="0.1" stop-color="#a3d17b"/><stop offset="0.71" stop-color="#64b85c"/><stop offset="1" stop-color="#4caf50"/></linearGradient><linearGradient id="linear-gradient-2" x1="-253.78" y1="2173.72" x2="-248.93" y2="1556.26" gradientTransform="translate(-1413.3 247.07) rotate(-90)" gradientUnits="userSpaceOnUse"><stop offset="0" stop-color="#396"/><stop offset="0.09" stop-color="#3e9e68"/><stop offset="1" stop-color="#aed581"/></linearGradient><linearGradient id="linear-gradient-3" x1="-874.43" y1="631.83" x2="-1093.65" y2="632.35" gradientTransform="matrix(-0.01, 0.63, -1, -0.01, 1373.18, 970.53)" gradientUnits="userSpaceOnUse"><stop offset="0.21" stop-color="#aed581"/><stop offset="0.21" stop-color="#add580"/><stop offset="0.58" stop-color="#79c066"/><stop offset="0.85" stop-color="#58b456"/><stop offset="1" stop-color="#4caf50"/></linearGradient><linearGradient id="linear-gradient-4" x1="-427.19" y1="714.27" x2="-437.1" y2="1283.93" gradientTransform="translate(-499.91 -213.04) rotate(-90)" xlink:href="#linear-gradient-2"/></defs><path class="cls-1" d="M481.53,867.57l90.65-1c3.39,0,6.57-2.71,8.67-7.27l63.34-138c5.87-12.79.48-31.84-9-31.86l-198.49-.51c-6.77,0-12,10.21-11.08,21.85l10.52,139.92c.75,9.91,5.67,17.36,11.44,17.29Z" transform="translate(-159.78 -128.79)"/><rect class="cls-2" x="120.99" y="408.39" width="737.44" height="180.66" rx="12.79" transform="translate(-168.79 859.64) rotate(-90)"/><path class="cls-3" d="M839.48,204.69l-1.12,100.77c0,3.76-2.74,7.3-7.37,9.64L691.27,385.65c-12.95,6.54-32.23.57-32.25-10L658.73,155c0-7.53,10.34-13.3,22.13-12.34l141.6,11.54c10,.82,17.57,6.29,17.49,12.69Z" transform="translate(-159.78 -128.79)"/><rect class="cls-4" x="159.78" y="128.79" width="679.94" height="180.66" rx="12.79" transform="translate(839.73 309.44) rotate(180)"/></svg>
