<svg width="81" height="19" viewBox="0 0 81 19" fill="none" xmlns="http://www.w3.org/2000/svg">
<path d="M9.93371 15.2231C10.7351 14.4057 11.1358 13.3158 11.1358 11.9535C11.1358 10.5912 10.7351 9.50935 9.93371 8.70799C9.14837 7.90662 8.21077 7.50594 7.12092 7.50594C6.03106 7.50594 5.08545 7.89861 4.28408 8.68395C3.49874 9.46929 3.10607 10.5431 3.10607 11.9054C3.10607 13.2678 3.49874 14.3656 4.28408 15.1991C5.08545 16.0164 6.03106 16.4251 7.12092 16.4251C8.21077 16.4251 9.14837 16.0245 9.93371 15.2231ZM6.54393 18.8052C4.78093 18.8052 3.2984 18.1641 2.09635 16.8819C0.894299 15.5837 0.293274 13.9329 0.293274 11.9295C0.293274 9.91004 0.886285 8.27525 2.07231 7.02512C3.27436 5.75896 4.7649 5.12588 6.54393 5.12588C7.58571 5.12588 8.49927 5.36629 9.28461 5.84711C10.086 6.3119 10.703 6.92895 11.1358 7.69827V0.798502H13.9005V18.5888H11.1358V16.1126C10.687 16.93 10.0699 17.5871 9.28461 18.084C8.49927 18.5648 7.58571 18.8052 6.54393 18.8052Z" fill="currentColor"/>
<path d="M16.8992 9.14072C16.8992 8.01881 17.372 7.0732 18.3176 6.30389C19.2632 5.51855 20.5054 5.12588 22.044 5.12588C23.5826 5.12588 24.8007 5.51054 25.6982 6.27985C26.6118 7.03313 27.1006 8.06689 27.1647 9.38113H24.3519C24.3038 8.72401 24.0714 8.21114 23.6547 7.84251C23.254 7.47388 22.6851 7.28957 21.9478 7.28957C21.2106 7.28957 20.6336 7.45785 20.2169 7.79443C19.8002 8.11497 19.5918 8.54771 19.5918 9.09264C19.5918 9.62154 19.8563 10.0383 20.3852 10.3428C20.9141 10.6473 21.5552 10.8717 22.3084 11.0159C23.0777 11.1602 23.839 11.3365 24.5923 11.5448C25.3616 11.7532 26.0107 12.1378 26.5397 12.6988C27.0686 13.2437 27.333 13.981 27.333 14.9106C27.333 16.0645 26.8442 17.0021 25.8665 17.7234C24.9049 18.4446 23.6627 18.8052 22.1402 18.8052C20.6176 18.8052 19.3834 18.4366 18.4378 17.6993C17.4922 16.9621 16.9713 15.9123 16.8752 14.5499H19.712C19.7601 15.2071 20.0005 15.7199 20.4332 16.0886C20.866 16.4572 21.451 16.6415 22.1882 16.6415C22.9415 16.6415 23.5345 16.4812 23.9673 16.1607C24.416 15.8241 24.6404 15.3834 24.6404 14.8384C24.6404 14.2935 24.376 13.8688 23.8471 13.5643C23.3182 13.2597 22.6691 13.0354 21.8997 12.8911C21.1465 12.7308 20.3852 12.5545 19.6158 12.3622C18.8626 12.1539 18.2215 11.7852 17.6926 11.2563C17.1637 10.7274 16.8992 10.0222 16.8992 9.14072Z" fill="currentColor"/>
<path d="M36.7614 7.57806H33.5399V14.9106C33.5399 15.4074 33.6521 15.768 33.8765 15.9924C34.1169 16.2008 34.5176 16.3049 35.0785 16.3049H36.7614V18.5888H34.5977C32.0494 18.5888 30.7752 17.3627 30.7752 14.9106V7.57806H29.2125V5.34225H30.7752V2.04863H33.5399V5.34225H36.7614V7.57806Z" fill="currentColor"/>
<path d="M48.0143 15.2231C48.8156 14.4057 49.2163 13.3158 49.2163 11.9535C49.2163 10.5912 48.8156 9.50935 48.0143 8.70799C47.2289 7.90662 46.2913 7.50594 45.2015 7.50594C44.1116 7.50594 43.166 7.89861 42.3646 8.68395C41.5793 9.46929 41.1866 10.5431 41.1866 11.9054C41.1866 13.2678 41.5793 14.3656 42.3646 15.1991C43.166 16.0164 44.1116 16.4251 45.2015 16.4251C46.2913 16.4251 47.2289 16.0245 48.0143 15.2231ZM44.6245 18.8052C42.8615 18.8052 41.379 18.1641 40.1769 16.8819C38.9748 15.5837 38.3738 13.9329 38.3738 11.9295C38.3738 9.91004 38.9668 8.27525 40.1529 7.02512C41.3549 5.75896 42.8455 5.12588 44.6245 5.12588C45.6663 5.12588 46.5798 5.36629 47.3652 5.84711C48.1665 6.3119 48.7836 6.92895 49.2163 7.69827V5.34225H51.981V18.5888H49.2163V16.1126C48.7675 16.93 48.1505 17.5871 47.3652 18.084C46.5798 18.5648 45.6663 18.8052 44.6245 18.8052Z" fill="currentColor"/>
<path d="M61.1583 18.8052C59.235 18.8052 57.6724 18.1801 56.4703 16.93C55.2683 15.6799 54.6672 14.0291 54.6672 11.9776C54.6672 9.91004 55.2683 8.25121 56.4703 7.00108C57.6884 5.75094 59.2511 5.12588 61.1583 5.12588C62.761 5.12588 64.0833 5.51054 65.1251 6.27985C66.1829 7.03313 66.8961 8.11497 67.2647 9.52538H64.3077C63.8108 8.131 62.761 7.43381 61.1583 7.43381C60.0364 7.43381 59.1389 7.8345 58.4657 8.63586C57.8086 9.4212 57.48 10.5271 57.48 11.9535C57.48 13.38 57.8086 14.4939 58.4657 15.2952C59.1389 16.0966 60.0364 16.4973 61.1583 16.4973C62.745 16.4973 63.7948 15.8001 64.3077 14.4057H67.2647C66.8801 15.752 66.1588 16.8258 65.101 17.6272C64.0432 18.4125 62.729 18.8052 61.1583 18.8052Z" fill="currentColor"/>
<path d="M72.7367 18.5888H69.996V0.798502H72.7367V11.1361L77.5449 5.34225H81.3433L75.2369 11.9776L81.3433 18.5888H77.641L72.7367 12.8911V18.5888Z" fill="currentColor"/>
</svg>
