<?xml version="1.0" encoding="utf-8"?>
<svg version="1.1" xmlns="http://www.w3.org/2000/svg"
     viewBox="0 0 122.88 122.88"
     style="enable-background:new 0 0 122.88 105.21" xml:space="preserve">
     <linearGradient id="grad1" x1="0%" x2="100%" y1="0%" y2="0%" gradientTransform="rotate(0)">
      <stop offset="0%" stop-color="#0048ff" />
      <stop offset="100%" stop-color="#ce00ff" />
    </linearGradient>
    <style type="text/css">.st0{fill-rule:evenodd;clip-rule:evenodd;fill:url(#grad1);}</style>
    <g><path class="st0" d="M63.91,18.75v12.16h33.51c5.43,0,9.87,4.44,9.87,9.87v12.47h13.42c1.19,0,2.17,0.97,2.17,2.17v25.28 c0,1.19-0.97,2.17-2.17,2.17h-13.42v12.47c0,5.43-4.44,9.87-9.87,9.87h-73c-5.43,0-9.87-4.44-9.87-9.87V82.87H2.17 C0.97,82.87,0,81.9,0,80.71V55.42c0-1.19,0.97-2.17,2.17-2.17h12.38V40.79c0-5.43,4.44-9.87,9.87-9.87h33.51V18.75 c-3.85-1.26-6.62-4.87-6.62-9.14c0-5.31,4.3-9.61,9.61-9.61c5.31,0,9.61,4.3,9.61,9.61C70.53,13.88,67.75,17.49,63.91,18.75 L63.91,18.75z M41.03,79.74h40.81c1.99,0,3.62,1.63,3.62,3.62v1.7c0,1.99-1.63,3.62-3.62,3.62H41.03c-1.99,0-3.62-1.63-3.62-3.62 v-1.7C37.41,81.36,39.04,79.74,41.03,79.74L41.03,79.74z M78.7,47.59c5.37,0,9.73,4.35,9.73,9.73c0,5.37-4.35,9.72-9.73,9.72 s-9.72-4.35-9.72-9.72C68.97,51.94,73.33,47.59,78.7,47.59L78.7,47.59z M44.18,47.59c5.37,0,9.72,4.35,9.72,9.73 c0,5.37-4.35,9.72-9.72,9.72c-5.37,0-9.72-4.35-9.72-9.72C34.46,51.94,38.81,47.59,44.18,47.59L44.18,47.59z"/></g>
</svg>