<svg width="29" height="29" viewBox="90 0 29 29" fill="none" xmlns="http://www.w3.org/2000/svg">
<path d="M115.267 5.34376L114.68 4.75726C114.552 4.63151 114.417 4.67255 114.379 4.84408L114.013 6.47824C113.975 6.64977 114.046 6.89461 114.174 7.02035L114.5 7.36082C114.619 7.49375 114.768 7.46607 114.831 7.30073L115.371 5.87886C115.434 5.71167 115.384 5.47107 115.263 5.33995L115.269 5.3401L115.267 5.34376ZM111.067 2.25613L110.446 1.96927C110.281 1.90006 110.166 1.98428 110.189 2.16112L110.495 4.40435C110.518 4.57934 110.673 4.77997 110.838 4.84917L111.213 4.99796C111.376 5.07268 111.501 4.99056 111.491 4.81221L111.379 2.71866C111.368 2.54216 111.231 2.3327 111.069 2.25433L111.067 2.25613ZM99.8985 1.66918L99.2215 1.93368C99.0579 2.0018 99.0331 2.15328 99.1693 2.2681L102.343 4.9508C102.481 5.06381 102.726 5.10169 102.89 5.02986L103.256 4.86677C103.423 4.79875 103.452 4.64366 103.323 4.51977L100.443 1.78156C100.315 1.65766 100.069 1.60867 99.9023 1.66742L99.9004 1.66738L99.8985 1.66918ZM99.901 6.67606L95.6706 4.47064C95.511 4.38861 95.2749 4.41962 95.1437 4.54052L94.6299 5.03926C94.5042 5.16401 94.5356 5.32992 94.6973 5.40459L99.1534 7.47299C99.3152 7.54766 99.8428 7.168 99.9664 7.04691C100.09 6.92766 100.061 6.75995 99.9029 6.67611L99.901 6.67606ZM91.8741 9.027L91.6032 9.66186C91.5368 9.82525 91.6306 9.97607 91.807 9.99547L97.3633 10.6027C97.5397 10.622 97.7442 10.5049 97.8106 10.3415L97.9499 9.98893C98.0219 9.82754 97.9395 9.67144 97.7633 9.64463L92.3342 8.78288C92.158 8.75607 91.9519 8.86206 91.8761 9.02334L91.876 9.02705L91.8741 9.027ZM107.527 3.8343L106.148 1.13669C106.065 0.978735 105.854 0.841581 105.674 0.83136L104.928 0.802819C104.749 0.801915 104.678 0.924372 104.77 1.077L106.426 3.84113C106.518 3.99376 107.179 4.10173 107.354 4.10995C107.529 4.11818 107.607 3.99591 107.527 3.83801L107.527 3.8343ZM90.6214 14.1035L90.6068 14.8674C90.6058 15.0455 90.7512 15.168 90.927 15.141L96.7792 14.2421C96.9568 14.2151 97.1061 14.0501 97.1109 13.8722L97.1142 13.4641C97.1245 13.2882 96.9868 13.1585 96.8076 13.1743L90.9619 13.7543C90.7845 13.772 90.6297 13.9312 90.6194 14.109L90.6214 14.1035ZM112.063 9.54255L111.725 9.29082C111.639 9.23107 111.562 9.26806 111.556 9.37178L111.507 10.0736C111.501 10.1773 111.565 10.3088 111.652 10.3686L111.89 10.5491C111.969 10.6179 112.049 10.5866 112.066 10.4869L112.179 9.84793C112.197 9.74636 112.146 9.60962 112.065 9.5426L112.063 9.54255ZM107.447 8.67767L107.035 8.83398C106.938 8.87414 106.922 8.96649 107.001 9.03531L108.163 10.0726C108.24 10.1414 108.379 10.1598 108.474 10.114L108.733 10.0075C108.832 9.97114 108.853 9.88079 108.78 9.8047L107.759 8.75622C107.686 8.68384 107.546 8.64868 107.445 8.67948L107.449 8.67587L107.447 8.67767ZM105.078 10.7257C104.977 10.6953 104.942 10.5979 104.997 10.5103L105.255 10.1422C105.318 10.0604 105.45 10.0211 105.549 10.0589L107.358 10.7401C107.457 10.7779 107.488 10.877 107.43 10.9645L107.294 11.2022C107.24 11.2917 107.115 11.3422 107.014 11.3118L105.078 10.7257ZM106.775 12.658C106.768 12.7617 106.678 12.8484 106.574 12.8513L104.348 12.907C104.243 12.9117 104.166 12.8281 104.174 12.7244L104.232 12.3085C104.25 12.207 104.352 12.1261 104.457 12.1307L106.629 12.2127C106.734 12.2173 106.813 12.3046 106.8 12.4082L106.775 12.6598L106.775 12.658ZM109.596 8.48641C109.493 8.47261 109.432 8.54155 109.466 8.64073L109.782 9.62651C109.813 9.72563 109.924 9.81197 110.029 9.81654L110.314 9.84616C110.417 9.86181 110.483 9.79302 110.458 9.69033L110.235 8.77932C110.21 8.67663 110.105 8.57747 110.004 8.55446L109.596 8.48455L109.596 8.48641ZM101.949 7.52473L104.209 8.7295C104.318 8.78613 104.484 8.77001 104.579 8.69267L104.836 8.49341C104.936 8.42178 104.933 8.31041 104.826 8.24456L102.702 6.93943C102.598 6.87368 102.431 6.88234 102.333 6.95587L101.927 7.27931C101.831 7.35474 101.839 7.4644 101.949 7.52288L101.947 7.52283L101.949 7.52473ZM113.203 9.08594L113.512 7.93265C113.545 7.81478 113.495 7.6521 113.405 7.56815L112.965 7.18764C112.869 7.11097 112.778 7.14757 112.763 7.26777L112.606 8.53627C112.589 8.65828 112.651 8.82497 112.739 8.91257L112.987 9.14343C113.073 9.23099 113.169 9.20566 113.203 9.08779L113.203 9.08594ZM115.127 9.76262L114.828 9.26516C114.761 9.15955 114.641 9.14903 114.555 9.23773L113.911 9.92229C113.825 10.011 113.81 10.1701 113.873 10.2738L114.004 10.5016C114.064 10.6089 114.194 10.642 114.298 10.5723L115.043 10.0777C115.147 10.0098 115.182 9.86608 115.123 9.75881L115.127 9.76262ZM111.366 6.17802L110.897 5.96743C110.786 5.91447 110.705 5.97175 110.724 6.09468L110.923 7.55417C110.94 7.6752 111.044 7.81701 111.157 7.86816L111.471 8.02096C111.581 8.07759 111.665 8.02596 111.657 7.90518L111.581 6.49894C111.575 6.3782 111.477 6.23469 111.368 6.17992L111.366 6.17802ZM103.932 6.02696C103.82 6.07786 103.804 6.18504 103.9 6.26357L105.663 7.75418C105.755 7.83261 105.928 7.85932 106.04 7.81213L106.354 7.68296C106.468 7.63953 106.49 7.5325 106.401 7.4486L104.781 5.90787C104.693 5.82397 104.524 5.78809 104.41 5.83152L103.934 6.02701L103.932 6.02696ZM103.402 9.97384L103.584 9.72624C103.658 9.62798 103.623 9.51763 103.506 9.47935L100.894 8.61797C100.776 8.57783 100.623 8.62766 100.55 8.72968L100.279 9.11223C100.21 9.21434 100.25 9.32483 100.37 9.3576L103.06 10.1023C103.18 10.135 103.332 10.0796 103.4 9.9775L103.402 9.97384ZM109.113 5.41865L108.665 5.34773C108.543 5.32974 108.477 5.41151 108.521 5.5258L109.105 7.11028C109.148 7.22452 109.282 7.33559 109.404 7.35357L109.687 7.39427C109.809 7.41782 109.88 7.3399 109.846 7.224L109.396 5.67639C109.363 5.55868 109.234 5.44405 109.113 5.4205L109.113 5.41865ZM108.065 7.10382L107.088 5.47213C107.025 5.36662 106.873 5.29034 106.75 5.30202L106.278 5.35847C106.155 5.37385 106.112 5.46733 106.18 5.56928L107.292 7.20261C107.361 7.30456 107.518 7.37352 107.64 7.35443L107.956 7.31434C108.078 7.30267 108.126 7.20743 108.065 7.10382ZM102.155 12.6482L99.1152 12.9482C98.9926 12.9598 98.8843 13.0683 98.8773 13.1924L98.8504 13.7056C98.8491 13.828 98.9485 13.9122 99.0694 13.8931L102.104 13.426C102.227 13.4088 102.334 13.2928 102.341 13.1705L102.359 12.8445C102.371 12.7224 102.278 12.6309 102.155 12.6445L102.155 12.6482ZM99.1429 16.0134C99.1756 16.1311 99.2981 16.1955 99.4158 16.1577L102.355 15.1836C102.473 15.144 102.544 15.016 102.513 14.8965L102.441 14.5793C102.417 14.4581 102.301 14.3883 102.181 14.4204L99.197 15.2542C99.0776 15.2864 99.0028 15.4106 99.0335 15.5301L99.143 16.0116L99.1429 16.0134ZM99.6877 10.6682C99.5638 10.6557 99.4299 10.7376 99.3911 10.8535L99.2326 11.2909C99.1976 11.4069 99.2682 11.5107 99.3922 11.5176L102.348 11.7052C102.472 11.7121 102.604 11.6246 102.641 11.5087L102.744 11.222C102.789 11.1081 102.726 11.0045 102.604 10.9902L99.6896 10.6683L99.6877 10.6682ZM119 14.938C119.001 14.7618 118.875 14.549 118.715 14.4669L117.348 13.7675C117.189 13.6855 117.061 13.7638 117.061 13.9419L117.049 14.4091C117.041 14.5869 117.153 14.8143 117.299 14.9164L118.681 15.8889C118.827 15.991 118.954 15.933 118.965 15.7552L119.004 14.9326L119.003 14.9381L119 14.938ZM117.979 19.9983C118.047 19.8349 118.007 19.5872 117.894 19.4488L116.556 17.8189C116.443 17.6806 116.293 17.7027 116.223 17.8642L116.046 18.2213C115.97 18.3826 115.992 18.6317 116.094 18.7791L117.388 20.6471C117.489 20.7926 117.633 20.7814 117.708 20.6202L117.975 19.9963L117.977 19.9964L117.979 19.9983ZM110.076 27.7989C110.242 27.7327 110.39 27.5343 110.401 27.3565L110.682 23.4236C110.694 23.2477 110.567 23.1498 110.398 23.2103L110.016 23.3303C109.846 23.3834 109.688 23.5742 109.663 23.7497L109.127 27.8356C109.103 28.0094 109.225 28.1071 109.392 28.0502L110.074 27.8007L110.076 27.8007L110.076 27.7989ZM106.679 24.0771C106.739 23.9117 106.647 23.7684 106.474 23.7602C106.301 23.752 105.65 23.8187 105.582 23.9802L103.675 28.4555C103.605 28.6187 103.694 28.7602 103.872 28.7703L104.592 28.8019C104.773 28.8066 104.968 28.6725 105.031 28.5053L106.679 24.0753L106.679 24.0771ZM99.1205 27.6274C99.2861 27.6966 99.5115 27.6412 99.6244 27.5031L103.075 23.281C103.188 23.1448 103.145 22.9731 102.98 22.902L102.638 22.7318C102.476 22.6553 102.246 22.7012 102.127 22.8336L98.4102 26.9487C98.2919 27.0792 98.3249 27.2544 98.4847 27.3309L99.1168 27.6236L99.1205 27.6274ZM114.271 21.1584C114.223 20.9884 114.083 20.9458 113.957 21.0687C113.833 21.1917 113.415 21.7077 113.45 21.8811L114.095 25.0273C114.129 25.2007 114.266 25.245 114.399 25.126L114.934 24.613C115.061 24.4864 115.124 24.245 115.078 24.0732L114.271 21.1584ZM94.7368 24.676C94.8652 24.8017 95.0868 24.8186 95.2307 24.7129L99.9683 21.2883C100.112 21.1844 100.127 20.9955 100 20.8717L99.722 20.5696C99.5975 20.4402 99.376 20.4159 99.2248 20.5122L94.2657 23.7048C94.1164 23.8011 94.0907 23.9878 94.2133 24.119L94.7424 24.6761L94.7405 24.6761L94.7368 24.676ZM113.769 13.9219C113.784 13.8202 113.728 13.6834 113.647 13.62L113.13 13.219C113.049 13.1557 112.969 13.1852 112.955 13.2887L112.901 13.5804C112.877 13.6818 112.919 13.8239 112.994 13.8963L113.508 14.3863C113.583 14.4587 113.665 14.4367 113.69 14.3354L113.77 13.9256L113.769 13.9219ZM110.923 17.6123C111.018 17.5703 111.1 17.4518 111.105 17.348L111.151 15.8949C111.154 15.791 111.078 15.739 110.979 15.7754L110.715 15.8669C110.613 15.8958 110.523 16.0011 110.511 16.1028L110.352 17.6403C110.342 17.7439 110.415 17.8014 110.514 17.7669L110.927 17.6106L110.923 17.6105L110.923 17.6123ZM108.816 15.9403C108.871 15.8509 108.999 15.8059 109.098 15.8363L109.099 15.8363L109.362 15.9229C109.465 15.9497 109.51 16.0454 109.462 16.1369L108.58 17.8375C108.532 17.9309 108.408 17.9889 108.305 17.9696L107.864 17.8673C107.763 17.8387 107.722 17.7412 107.777 17.6536L108.818 15.9404L108.816 15.9403ZM107.914 15.2678C107.993 15.3384 107.994 15.4535 107.918 15.5257L106.36 17.0178C106.285 17.0901 106.155 17.0978 106.072 17.0326L105.746 16.7608C105.669 16.6902 105.67 16.577 105.752 16.5105L107.444 15.0831C107.523 15.0165 107.649 15.0216 107.725 15.0941L107.914 15.2641L107.914 15.2678ZM112.909 16.0163C112.97 15.9325 112.979 15.7881 112.929 15.6959L112.477 14.8717C112.427 14.7795 112.331 14.7715 112.265 14.8514L112.073 15.0616C111.997 15.1339 111.971 15.2723 112.018 15.3663L112.452 16.3069C112.494 16.4026 112.586 16.4124 112.654 16.3344L112.909 16.0126L112.909 16.0163ZM107.625 22.0944C107.583 22.2083 107.65 22.2972 107.774 22.2893L108.294 22.2619C108.417 22.2502 108.548 22.1479 108.579 22.03L109.273 19.6585C109.308 19.5407 109.233 19.4553 109.112 19.467L108.786 19.4901C108.662 19.4944 108.527 19.5911 108.487 19.7069L107.625 22.0925L107.627 22.0926L107.625 22.0944ZM114.925 13.5158C114.82 13.4481 114.732 13.4941 114.727 13.6164L114.701 13.9515C114.694 14.0737 114.761 14.2387 114.857 14.3191L115.836 15.1569C115.928 15.2372 116.023 15.2044 116.041 15.0843L116.109 14.511C116.122 14.3889 116.047 14.2348 115.941 14.169L114.929 13.5159L114.925 13.5158ZM115.897 11.7451C115.868 11.6257 115.744 11.5427 115.621 11.5599L114.731 11.6854C114.609 11.7026 114.532 11.8138 114.561 11.9314L114.618 12.187C114.641 12.3064 114.761 12.4133 114.885 12.424L115.829 12.5077C115.951 12.5183 116.035 12.4295 116.013 12.3084L115.899 11.7415L115.898 11.7452L115.897 11.7451ZM115.538 16.8855C115.582 16.7717 115.557 16.6022 115.48 16.5075L114.581 15.412C114.505 15.3173 114.407 15.3333 114.364 15.4472L114.235 15.7686C114.185 15.8823 114.205 16.0553 114.274 16.1573L115.117 17.3718C115.185 17.4738 115.284 17.4633 115.332 17.3514L115.536 16.8855L115.538 16.8855ZM110.601 21.7315C110.715 21.6881 110.816 21.5516 110.825 21.4312L110.984 19.2167C110.993 19.0963 110.904 19.031 110.79 19.0744L110.469 19.1848C110.353 19.2245 110.244 19.359 110.228 19.4773L109.929 21.7476C109.912 21.8696 109.997 21.9385 110.114 21.9026L110.601 21.7334L110.601 21.7315ZM107.038 19.3189C106.919 19.288 106.767 19.3471 106.702 19.4512L105.208 21.7778C105.141 21.88 105.185 21.9887 105.307 22.0197L105.769 22.1244C105.89 22.1516 106.039 22.0868 106.1 21.9808L107.456 19.6172C107.517 19.5112 107.467 19.406 107.345 19.3825L107.042 19.319L107.038 19.3189ZM114.377 18.9332C114.451 18.835 114.469 18.6666 114.413 18.5557L113.697 17.1089C113.644 16.9999 113.538 16.9879 113.462 17.0861L113.28 17.304C113.202 17.3985 113.177 17.5703 113.223 17.6828L113.864 19.2465C113.91 19.359 114.015 19.3765 114.093 19.2839L114.377 18.9351L114.377 18.9332ZM112.451 18.3753C112.426 18.2559 112.326 18.2162 112.228 18.2897L111.965 18.4684C111.862 18.5344 111.792 18.6884 111.809 18.8113L112.093 20.759C112.11 20.8801 112.207 20.9215 112.309 20.8518L112.698 20.5817C112.798 20.5082 112.86 20.3522 112.833 20.2327L112.451 18.3753ZM104.299 18.1537C104.399 18.0821 104.406 17.9543 104.314 17.8703L104.079 17.6397C103.991 17.554 103.834 17.5369 103.73 17.6066L101.157 19.2617C101.054 19.3277 101.037 19.4552 101.121 19.5464L101.49 19.9103C101.578 19.996 101.734 20.0075 101.832 19.9339L104.295 18.1517L104.299 18.1537ZM100.022 18.0674C100.081 18.1747 100.221 18.2191 100.332 18.1645L103.115 16.8153C103.226 16.7607 103.265 16.6337 103.2 16.5263L103.038 16.2438C102.981 16.1348 102.841 16.0866 102.727 16.1356L99.8809 17.3514C99.7686 17.4005 99.72 17.5291 99.7754 17.6381L100.022 18.0674ZM105.757 19.091C105.839 19.0004 105.815 18.8811 105.704 18.8262L105.433 18.682C105.326 18.6198 105.169 18.6418 105.082 18.7286L103.013 20.8159C102.926 20.9027 102.943 21.0274 103.047 21.0895L103.462 21.3098C103.57 21.3701 103.725 21.3426 103.81 21.252L105.757 19.091ZM104.427 14.7381L104.563 15.1052C104.601 15.2008 104.715 15.2464 104.812 15.2081L106.92 14.3461C107.017 14.306 107.062 14.1958 107.025 14.0984L106.931 13.8585C106.9 13.7594 106.792 13.7047 106.693 13.7411L104.541 14.4962C104.442 14.5307 104.389 14.6407 104.428 14.7363L104.427 14.7381ZM117.896 9.37775C117.829 9.21462 117.64 9.14669 117.482 9.22608L116.477 9.73625C116.317 9.81744 116.244 10.0178 116.315 10.1791L116.484 10.6528C116.548 10.8177 116.741 10.9173 116.913 10.8717L118.007 10.5883C118.181 10.5427 118.272 10.3706 118.215 10.2041L117.9 9.37784L117.896 9.37775ZM97.6668 18.0938C97.8323 18.0276 97.9107 17.8385 97.8435 17.6754L97.6846 17.2836C97.625 17.117 97.4373 17.0286 97.2682 17.0874L91.6039 19.0596C91.4367 19.1184 91.3509 19.3017 91.4143 19.4666L91.6853 20.1729C91.7525 20.336 91.9442 20.417 92.1098 20.3471L97.665 18.0919L97.6668 18.0938ZM113.463 11.9587C113.564 11.9279 113.617 11.8199 113.586 11.7208L113.422 11.301C113.385 11.2036 113.274 11.1617 113.178 11.2094L112.831 11.3766C112.736 11.4224 112.691 11.5381 112.728 11.6355L112.857 11.9505C112.892 12.0479 113.004 12.1027 113.104 12.0719L113.463 11.9587Z" fill="currentColor"></path>
</svg>
