<svg viewBox="170 149 352 378" fill="none" xmlns="http://www.w3.org/2000/svg">
    <path d="M271.671 195.833C197.752 239.195 193.096 242.396 185.529 254.619C180.291 263.349 180 270.043 180 348.618C180 411.77 180.873 434.178 183.783 437.671C189.313 444.946 319.69 518.865 324.928 517.992C329.293 517.119 329.876 508.971 330.749 437.38C331.331 373.646 330.749 356.476 327.547 351.529C325.219 348.036 298.736 331.739 268.761 314.86C238.786 297.981 212.303 281.393 209.975 277.9C204.737 270.334 207.356 260.73 215.213 256.365C219.87 254.037 233.548 256.365 278.656 268.006C310.377 276.154 340.061 282.848 344.718 282.848C357.522 282.848 489.937 207.473 489.937 200.198C489.937 195.542 480.042 192.049 420.092 176.334C381.677 166.149 347.046 158 342.971 158C338.897 158.291 306.885 175.17 271.671 195.833Z"
          fill="#673AB7"/>
    <path d="M454.142 245.306L444.538 251.418L462.873 262.185C473.058 268.006 481.207 274.699 481.207 277.027C481.207 279.647 457.925 294.78 424.749 313.696C393.901 331.157 366.545 348.327 364.508 351.238C361.015 355.894 360.433 372.191 361.015 436.798C361.888 508.971 362.47 517.119 366.836 517.992C372.074 518.865 502.451 444.946 508.272 437.671C510.891 434.178 511.764 412.061 511.764 349.782C511.764 287.504 510.891 265.387 508.272 261.894C503.615 256.365 473.058 239.195 467.82 239.195C465.492 239.195 459.38 242.105 454.142 245.306Z"
          fill="#673AB7"/>
</svg>
