<svg xmlns="http://www.w3.org/2000/svg" viewBox="-1 0 120 130" fill="none">
    <path fill-rule="evenodd" clip-rule="evenodd" d="M107.761 105.507C114.545 101.599 118.724 94.3777 118.724 86.5627V43.4373C118.724 35.6223 114.545 28.4008 107.761 24.4933L70.3254 2.93065C63.5414 -0.976885 55.1831 -0.976882 48.3991 2.93065L10.9632 24.4933C4.17914 28.4009 -1.56787e-06 35.6223 0 43.4373L4.94714e-06 86.5627C2.33289e-06 94.3777 4.17915 101.599 10.9632 105.507L48.3991 127.069C55.1831 130.977 63.5414 130.977 70.3254 127.069L107.761 105.507ZM107.761 86.5627C107.761 90.4702 105.672 94.0809 102.28 96.0347L82.6865 107.32C80.9596 108.315 80.0961 108.812 79.3876 108.738C78.7696 108.673 78.2082 108.35 77.8429 107.848C77.4242 107.273 77.4242 106.278 77.4242 104.289V81.7187C77.4242 77.8111 79.5137 74.2004 82.9057 72.2467L93.3965 66.2041C94.8371 65.3743 95.5574 64.9595 96.0808 64.3789C96.5439 63.8652 96.8935 63.26 97.1067 62.6026C97.3476 61.8597 97.3461 61.0299 97.3432 59.3704L97.3423 58.8719C97.3379 56.3896 97.3357 55.1484 96.8119 54.431C96.3549 53.8051 95.6534 53.4019 94.8816 53.3214C93.9967 53.2291 92.9192 53.8497 90.7644 55.0908L77.4242 62.7747C70.6401 66.6822 66.461 73.9036 66.461 81.7187V114.803C66.461 115.956 65.8445 117.021 64.8438 117.597C61.4518 119.551 57.2727 119.551 53.8807 117.597L16.4448 96.0347C13.0528 94.0809 10.9632 90.4702 10.9632 86.5627V64.3338C10.9632 62.3445 10.9632 61.3498 11.3819 60.7748C11.7472 60.2733 12.3086 59.9499 12.9266 59.8851C13.6351 59.8108 14.4985 60.3081 16.2254 61.3027L35.413 72.3538C38.805 74.3076 40.8946 77.9184 40.8946 81.8258V93.335C40.8946 94.9946 40.8946 95.8243 41.1369 96.5669C41.3512 97.2238 41.7018 97.8284 42.1659 98.3413C42.6903 98.921 43.4114 99.3346 44.8534 100.162L45.2866 100.41C47.4436 101.648 48.5221 102.266 49.4069 102.172C50.1786 102.091 50.8794 101.686 51.3352 101.059C51.8578 100.341 51.8578 99.0999 51.8578 96.6176V81.8258C51.8578 74.0108 47.6786 66.7894 40.8946 62.8818L12.8777 46.7454C11.693 46.0631 10.9632 44.8021 10.9632 43.4373C10.9632 39.5298 13.0527 35.9191 16.4448 33.9653L53.8806 12.4027C57.2727 10.4489 61.4518 10.4489 64.8438 12.4027L84.224 23.5654C85.9509 24.5601 86.8143 25.0574 87.1041 25.7067C87.3569 26.2731 87.3569 26.9198 87.1041 27.4862C86.8143 28.1355 85.9509 28.6328 84.224 29.6275L64.5407 40.9649C61.1487 42.9186 56.9696 42.9186 53.5775 40.9649L42.5494 34.6128C41.4517 33.9805 40.9028 33.6644 40.3187 33.5374C39.8018 33.4251 39.2672 33.4206 38.7485 33.5242C38.1623 33.6414 37.6082 33.9483 36.4999 34.562L35.1326 35.3193C32.9161 36.5468 31.8079 37.1606 31.4329 37.9748C31.106 38.6849 31.0991 39.5005 31.414 40.2159C31.7752 41.0363 32.873 41.6686 35.0684 42.9331L48.096 50.4369C54.88 54.3444 63.2383 54.3444 70.0223 50.4369L98.6193 33.9653C99.7518 33.313 101.147 33.313 102.28 33.9653C105.672 35.9191 107.761 39.5298 107.761 43.4373V86.5627Z" fill="black"/>
</svg>
