<?xml version="1.0" encoding="UTF-8"?>
<svg version="1.1" xmlns="http://www.w3.org/2000/svg" width="200" height="200" viewBox="20 20 160 160">
<path d="M0 0 C66 0 132 0 200 0 C200 66 200 132 200 200 C134 200 68 200 0 200 C0 134 0 68 0 0 Z " fill="#FEFEFE" transform="translate(0,0)"/>
<path d="M0 0 C17.58454118 -0.02332838 35.16907754 -0.04097887 52.75363064 -0.05181217 C60.91787164 -0.05697526 69.08210305 -0.0640182 77.24633789 -0.07543945 C84.35971284 -0.0853859 91.47308085 -0.09185333 98.58646256 -0.09408849 C102.35525724 -0.09539567 106.12403203 -0.09848194 109.89282036 -0.10573006 C114.09318816 -0.11374316 118.29352108 -0.11399116 122.49389648 -0.11352539 C123.75265091 -0.11712067 125.01140533 -0.12071594 126.30830383 -0.12442017 C128.01423203 -0.12235817 128.01423203 -0.12235817 129.75462341 -0.12025452 C130.74923804 -0.12117631 131.74385267 -0.1220981 132.76860714 -0.12304783 C135 0 135 0 136 1 C136.13803908 3.40149927 136.21306598 5.77225199 136.23828125 8.17578125 C136.246353 8.89734909 136.25442474 9.61891693 136.26274109 10.36235046 C136.27659671 11.89315376 136.28731224 13.42398814 136.29516602 14.95483398 C136.31235483 17.2927547 136.35622083 19.62925237 136.40039062 21.96679688 C136.41051949 23.45311458 136.41903499 24.93944434 136.42578125 26.42578125 C136.44328934 27.12383377 136.46079742 27.82188629 136.47883606 28.54109192 C136.46447349 31.76728145 136.26163308 33.64540028 134.32421875 36.27124023 C129.76174419 39.66482031 124.72035366 42.13141977 119.6875 44.75 C118.01397461 45.65298828 118.01397461 45.65298828 116.30664062 46.57421875 C115.21931641 47.14269531 114.13199219 47.71117187 113.01171875 48.296875 C112.02647217 48.81604492 111.04122559 49.33521484 110.02612305 49.87011719 C106.49521562 51.18847456 103.74048771 51.27166033 100 51 C99 50 99 50 98.90234375 46.83984375 C98.93489583 43.2265625 98.96744792 39.61328125 99 36 C94.05 36 89.1 36 84 36 C84 61.08 84 86.16 84 112 C87.96 112 91.92 112 96 112 C96.33 112.33 96.66 112.66 97 113 C96.57883685 117.94790407 95.41470114 121.85772491 93.3125 126.3359375 C92.77882813 127.48191406 92.24515625 128.62789062 91.6953125 129.80859375 C91.13585937 130.98550781 90.57640625 132.16242188 90 133.375 C89.43409519 134.58686603 88.8689838 135.79910289 88.3046875 137.01171875 C84.17034248 145.82965752 84.17034248 145.82965752 83 147 C80.41810554 147.10091475 77.863535 147.13971499 75.28125 147.1328125 C74.12163757 147.13424759 74.12163757 147.13424759 72.93859863 147.13571167 C71.30102456 147.13639341 69.66344781 147.13453957 68.02587891 147.13037109 C65.51068079 147.12502271 62.99566127 147.13031626 60.48046875 147.13671875 C58.89322877 147.13605797 57.3059889 147.1347768 55.71875 147.1328125 C54.96146606 147.13483673 54.20418213 147.13686096 53.4239502 147.13894653 C48.11495132 147.11495132 48.11495132 147.11495132 47 146 C46.90445601 144.57053529 46.87811562 143.13637335 46.87974548 141.70372009 C46.87837082 140.77678848 46.87699615 139.84985687 46.87557983 138.89483643 C46.88097275 137.35735748 46.88097275 137.35735748 46.88647461 135.78881836 C46.88632858 134.71577957 46.88618256 133.64274078 46.8860321 132.53718567 C46.88673176 128.97138484 46.89452662 125.40563551 46.90234375 121.83984375 C46.90420774 119.37504607 46.90563173 116.91024801 46.90663147 114.44544983 C46.91045813 107.94346095 46.92028968 101.44149425 46.93133545 94.93951416 C46.94208252 88.31059183 46.94612841 81.68166307 46.95117188 75.05273438 C46.96191181 62.03514676 46.97879903 49.01757456 47 36 C46.42592911 36.00222061 45.85185822 36.00444122 45.26039124 36.00672913 C39.3074709 36.02878257 33.3545621 36.04390684 27.40161133 36.05493164 C25.17732268 36.05997317 22.95303737 36.06680623 20.72875977 36.07543945 C17.53921691 36.08751298 14.34971771 36.09322996 11.16015625 36.09765625 C9.65860741 36.10539818 9.65860741 36.10539818 8.12672424 36.11329651 C7.20584518 36.11337204 6.28496613 36.11344757 5.33618164 36.11352539 C4.52121719 36.115746 3.70625275 36.11796661 2.86659241 36.12025452 C1 36 1 36 0 35 C-0.08851529 32.40640678 -0.11525945 29.83960309 -0.09765625 27.24609375 C-0.09553383 26.08292381 -0.09553383 26.08292381 -0.09336853 24.89625549 C-0.08775345 22.40996506 -0.07519846 19.9237634 -0.0625 17.4375 C-0.05748694 15.75586067 -0.0529237 14.07421994 -0.04882812 12.39257812 C-0.03777913 8.26168434 -0.02050445 4.13085724 0 0 Z " fill="#71B774" transform="translate(30,30)"/>
<path d="M0 0 C6.6752034 -0.02526945 13.35039457 -0.04283268 20.02563477 -0.05493164 C22.29842591 -0.05997325 24.5712138 -0.06680637 26.84399414 -0.07543945 C30.10303551 -0.08751261 33.36203417 -0.09322987 36.62109375 -0.09765625 C37.64400009 -0.10281754 38.66690643 -0.10797882 39.72080994 -0.11329651 C40.66170975 -0.11337204 41.60260956 -0.11344757 42.57202148 -0.11352539 C43.40475082 -0.115746 44.23748016 -0.11796661 45.09544373 -0.12025452 C47 0 47 0 48 1 C59.55 1 71.1 1 83 1 C83 26.08 83 51.16 83 77 C86.96 77 90.92 77 95 77 C95.33 77.33 95.66 77.66 96 78 C95.57883685 82.94790407 94.41470114 86.85772491 92.3125 91.3359375 C91.77882813 92.48191406 91.24515625 93.62789063 90.6953125 94.80859375 C90.13585937 95.98550781 89.57640625 97.16242188 89 98.375 C88.43409519 99.58686603 87.8689838 100.79910289 87.3046875 102.01171875 C83.17034248 110.82965752 83.17034248 110.82965752 82 112 C79.41810554 112.10091475 76.863535 112.13971499 74.28125 112.1328125 C73.12163757 112.13424759 73.12163757 112.13424759 71.93859863 112.13571167 C70.30102456 112.13639341 68.66344781 112.13453957 67.02587891 112.13037109 C64.51068079 112.12502271 61.99566127 112.13031626 59.48046875 112.13671875 C57.89322877 112.13605797 56.3059889 112.1347768 54.71875 112.1328125 C53.96146606 112.13483673 53.20418213 112.13686096 52.4239502 112.13894653 C47.11495132 112.11495132 47.11495132 112.11495132 46 111 C45.90445601 109.57053529 45.87811562 108.13637335 45.87974548 106.70372009 C45.87837082 105.77678848 45.87699615 104.84985687 45.87557983 103.89483643 C45.88097275 102.35735748 45.88097275 102.35735748 45.88647461 100.78881836 C45.88632858 99.71577957 45.88618256 98.64274078 45.8860321 97.53718567 C45.88673176 93.97138484 45.89452662 90.40563551 45.90234375 86.83984375 C45.90420774 84.37504607 45.90563173 81.91024801 45.90663147 79.44544983 C45.91045813 72.94346095 45.92028968 66.44149425 45.93133545 59.93951416 C45.94208252 53.31059183 45.94612841 46.68166307 45.95117188 40.05273438 C45.96191181 27.03514492 45.97950981 14.01757777 46 1 C30.82 1 15.64 1 0 1 C0 0.67 0 0.34 0 0 Z " fill="#7EBD78" transform="translate(31,65)"/>
<path d="M0 0 C0.66 0.66 1.32 1.32 2 2 C3.96682413 2.20645443 3.96682413 2.20645443 6.25 2.0625 C10.68757028 1.97816021 15.06888303 2.10603302 19.5 2.375 C20.6859375 2.44460937 21.871875 2.51421875 23.09375 2.5859375 C26 3 26 3 28 5 C22.66666667 7.66666667 17.33333333 10.33333333 12 13 C11.33581055 13.36625488 10.67162109 13.73250977 9.98730469 14.10986328 C6.984073 15.45504544 4.23825267 15.18329732 1 15 C0 14 0 14 -0.09765625 10.83984375 C-0.08025391 8.90818359 -0.08025391 8.90818359 -0.0625 6.9375 C-0.05347656 5.64714844 -0.04445312 4.35679688 -0.03515625 3.02734375 C-0.02355469 2.02832031 -0.01195312 1.02929688 0 0 Z " fill="#7EC269" transform="translate(129,66)"/>
<path d="M0 0 C2.97 0 5.94 0 9 0 C9.33 0.33 9.66 0.66 10 1 C9.62361615 7.09421508 7.49774878 11.94998922 4.9375 17.4375 C4.56044922 18.26443359 4.18339844 19.09136719 3.79492188 19.94335938 C2.87125642 21.96606979 1.93953046 23.98462257 1 26 C0.67 26 0.34 26 0 26 C0 17.42 0 8.84 0 0 Z " fill="#92C973" transform="translate(117,142)"/>
<path d="M0 0 C11.55 0 23.1 0 35 0 C31.58586088 3.41413912 29.90369866 4.91220038 25.06738281 5.13525391 C23.95717773 5.08288574 22.84697266 5.03051758 21.703125 4.9765625 C20.49785156 4.925 19.29257813 4.8734375 18.05078125 4.8203125 C16.79652344 4.75585938 15.54226562 4.69140625 14.25 4.625 C12.98027344 4.56828125 11.71054688 4.5115625 10.40234375 4.453125 C7.26765385 4.31171042 4.13377164 4.16030009 1 4 C0.67 2.68 0.34 1.36 0 0 Z " fill="#63B562" transform="translate(130,65)"/>
<path d="M0 0 C0.99 0 1.98 0 3 0 C3.07421454 3.93260944 3.12863136 7.86494722 3.16479492 11.7980957 C3.18728333 13.79327701 3.22540198 15.78826213 3.26367188 17.78320312 C3.27333984 19.03681641 3.28300781 20.29042969 3.29296875 21.58203125 C3.3086792 22.73936768 3.32438965 23.8967041 3.34057617 25.08911133 C3 28 3 28 0 31 C0 20.77 0 10.54 0 0 Z " fill="#7DC269" transform="translate(114,142)"/>
<path d="M0 0 C0.33 0 0.66 0 1 0 C1 3.3 1 6.6 1 10 C5.95 10 10.9 10 16 10 C10.48994136 14.13254398 7.99257024 15.39580586 1 15 C0 14 0 14 -0.09765625 10.83984375 C-0.08025391 8.90818359 -0.08025391 8.90818359 -0.0625 6.9375 C-0.05347656 5.64714844 -0.04445312 4.35679688 -0.03515625 3.02734375 C-0.02355469 2.02832031 -0.01195312 1.02929688 0 0 Z " fill="#AAD488" transform="translate(129,66)"/>
<path d="M0 0 C1.65 0 3.3 0 5 0 C5.33 0.33 5.66 0.66 6 1 C5.62753202 6.95948775 3.59893548 11.66916025 1 17 C0.67 17 0.34 17 0 17 C0 11.39 0 5.78 0 0 Z " fill="#ABD482" transform="translate(121,142)"/>
<path d="M0 0 C6.93 0 13.86 0 21 0 C16.5 3.375 16.5 3.375 12.890625 3.29296875 C12.13652344 3.28330078 11.38242188 3.27363281 10.60546875 3.26367188 C9.82816406 3.23853516 9.05085937 3.21339844 8.25 3.1875 C7.45722656 3.17396484 6.66445312 3.16042969 5.84765625 3.14648438 C3.89814436 3.11125223 1.94898374 3.05744821 0 3 C0 2.01 0 1.02 0 0 Z " fill="#93CA75" transform="translate(130,73)"/>
</svg>
