<?xml version="1.0" encoding="UTF-8"?>
<svg id="Layer_1" xmlns="http://www.w3.org/2000/svg" version="1.1" viewBox="78 77 162 137">
  <!-- Generator: Adobe Illustrator 29.8.2, SVG Export Plug-In . SVG Version: 2.1.1 Build 3)  -->
  <defs>
    <style>
      .st0 {
        fill: #0f2750;
      }
    </style>
  </defs>
  <path class="st0" d="M230.69,125.03c4.8,0,8.7-3.93,8.7-8.77s-3.9-8.77-8.7-8.77c-3.33,0-6.05-2.74-6.05-6.11s2.71-6.09,6.05-6.09c4.8,0,8.7-3.93,8.7-8.77s-3.9-8.77-8.7-8.77-8.7,3.93-8.7,8.77c0,3.36-2.71,6.09-6.04,6.09-4.8,0-8.7,3.93-8.7,8.77,0,3.37-2.72,6.11-6.06,6.11-4.8,0-8.7,3.93-8.7,8.77,0,3.36-2.71,6.09-6.04,6.09-4.8,0-8.7,3.93-8.7,8.77,0,3.36-2.71,6.09-6.05,6.09-4.81,0-8.72,3.94-8.72,8.78s3.91,8.77,8.72,8.77c3.33,0,6.05,2.73,6.05,6.09,0,4.84,3.9,8.77,8.7,8.77,3.33,0,6.04,2.73,6.04,6.09,0,4.84,3.9,8.78,8.7,8.78,3.34,0,6.06,2.73,6.06,6.09,0,4.83,3.9,8.77,8.7,8.77,3.33,0,6.04,2.73,6.04,6.09,0,4.83,3.9,8.77,8.7,8.77s8.7-3.93,8.7-8.77-3.9-8.77-8.7-8.77c-3.33,0-6.05-2.73-6.05-6.09s2.71-6.09,6.05-6.09c4.8,0,8.7-3.94,8.7-8.78s-3.9-8.77-8.7-8.77c-3.33,0-6.05-2.73-6.05-6.09s2.71-6.09,6.05-6.09c4.8,0,8.7-3.93,8.7-8.77s-3.9-8.78-8.7-8.78c-3.33,0-6.05-2.73-6.05-6.09s2.71-6.09,6.05-6.09ZM201.18,123.49c4.22,0,7.65,3.43,7.65,7.64s-3.43,7.64-7.65,7.64-7.63-3.43-7.63-7.64,3.42-7.64,7.63-7.64ZM186.33,153.63c-4.21,0-7.64-3.42-7.64-7.63s3.43-7.65,7.64-7.65,7.64,3.43,7.64,7.65-3.43,7.63-7.64,7.63ZM201.18,168.49c-4.21,0-7.63-3.43-7.63-7.64s3.42-7.64,7.63-7.64,7.65,3.43,7.65,7.64-3.43,7.64-7.65,7.64ZM216.06,183.35c-4.21,0-7.64-3.43-7.64-7.65s3.43-7.63,7.64-7.63,7.64,3.42,7.64,7.63-3.43,7.65-7.64,7.65ZM216.06,153.63c-4.21,0-7.64-3.42-7.64-7.63s3.43-7.65,7.64-7.65,7.64,3.43,7.64,7.65-3.43,7.63-7.64,7.63ZM216.06,123.92c-4.21,0-7.64-3.43-7.64-7.64s3.43-7.64,7.64-7.64,7.64,3.43,7.64,7.64-3.43,7.64-7.64,7.64Z"/>
  <path class="st0" d="M81.9,78.44c-1.58-1.42-4.1-.3-4.1,1.83v14.72c0,.89.43,1.72,1.16,2.24l63.17,41.49c.52.37.1,1.18-.5.96l-60.17-22.06c-1.78-.65-3.67.67-3.67,2.56v12.04c0,1.33.96,2.47,2.28,2.69l61.7,10.29c.91.15.91,1.46,0,1.62l-61.7,10.28c-1.32.22-2.28,1.36-2.28,2.69v12.04c0,1.9,1.89,3.22,3.67,2.56l60.17-22.06c.6-.22,1.02.59.5.96l-63.17,41.49c-.73.51-1.16,1.35-1.16,2.24v14.72c0,2.13,2.52,3.25,4.1,1.83l72.8-65.53c1.2-1.08,1.2-2.97,0-4.06l-72.8-65.53Z"/>
</svg>
