<svg xmlns="http://www.w3.org/2000/svg" fill="none" viewBox="0 0 96 96" id="Vultr-Icon--Streamline-Svg-Logos.svg"><desc>Vultr Icon Streamline Icon: https://streamlinehq.com</desc><path fill="#c9f4ff" d="M33.7433 9.83282c-0.8442 -1.38125 -2.3426 -2.22781 -3.9614 -2.23809H5.7c-2.59574 0 -4.7 2.10426 -4.7 4.69997 0 0.8861 0.2481 1.7544 0.71619 2.5067l6.19953 9.109 30.99758 -6.7142 -5.17 -7.36338Z" stroke-width="1"></path><path fill="#51b9ff" d="M39.0476 17.3749c-0.8546 -1.3816 -2.3593 -2.2269 -3.9838 -2.2381H11.0714c-1.75855 -0.0811 -3.4137 0.832 -4.28303 2.3628 -0.86933 1.5307 -0.8056 3.4199 0.16491 4.8887L13.869 33.3549l32.0271 -5.0133 -6.8485 -10.9667Z" stroke-width="1"></path><path fill="#007bfc" d="M13.578 32.9075c-0.7868 -1.2606 -0.9439 -2.815 -0.4252 -4.2076 0.7194 -1.8363 2.5043 -3.0321 4.4762 -2.999h23.9924c1.6256 0.0068 3.1323 0.8533 3.9838 2.2381L67.158 62.1147c0.4681 0.7523 0.7162 1.6206 0.7162 2.5067 -0.0035 0.8855 -0.2513 1.7529 -0.7162 2.5066L55.1171 86.219c-0.8669 1.3619 -2.3694 2.1866 -3.9838 2.1866 -1.6144 0 -3.117 -0.8247 -3.9838 -2.1866L13.578 32.9075Z" stroke-width="1"></path><path fill="#007bfc" d="M74.2752 43.8295c0.8669 1.3619 2.3694 2.1866 3.9838 2.1866 1.6144 0 3.1169 -0.8247 3.9838 -2.1866l4.1405 -6.5576 7.9005 -12.5334c0.4681 -0.7523 0.7162 -1.6206 0.7162 -2.5066 -0.0036 -0.8856 -0.2514 -1.753 -0.7162 -2.5067l-6.2667 -9.89238c-0.8546 -1.3816 -2.3593 -2.22696 -3.9838 -2.23809H59.9514c-1.2465 0 -2.442 0.49517 -3.3234 1.3766 -0.8814 0.88142 -1.3768 2.07687 -1.3768 3.32337 -0.0084 0.8904 0.2487 1.7632 0.7388 2.5067l18.2852 29.0281Z" stroke-width="1"></path></svg>
