<svg xmlns="http://www.w3.org/2000/svg"  viewBox="0 0 48 48" width="48px" height="48px" baseProfile="basic"><path fill="#536dfe" d="M47.496,10.074c-0.508-0.249-0.727,0.226-1.025,0.467c-0.102,0.078-0.188,0.179-0.274,0.272	c-0.743,0.794-1.611,1.315-2.746,1.253c-1.658-0.093-3.074,0.428-4.326,1.696c-0.266-1.564-1.15-2.498-2.495-3.097	c-0.704-0.311-1.416-0.623-1.909-1.3c-0.344-0.482-0.438-1.019-0.61-1.548c-0.11-0.319-0.219-0.646-0.587-0.7	c-0.399-0.062-0.555,0.272-0.712,0.553c-0.626,1.144-0.868,2.405-0.845,3.681c0.055,2.871,1.267,5.159,3.676,6.785	c0.274,0.187,0.344,0.373,0.258,0.646c-0.164,0.56-0.36,1.105-0.532,1.665c-0.11,0.358-0.274,0.436-0.657,0.28	c-1.322-0.552-2.464-1.369-3.473-2.358c-1.713-1.657-3.262-3.486-5.194-4.918c-0.454-0.335-0.907-0.646-1.377-0.942	c-1.971-1.914,0.258-3.486,0.774-3.673c0.54-0.195,0.188-0.864-1.557-0.856c-1.744,0.008-3.34,0.591-5.374,1.369	c-0.297,0.117-0.61,0.202-0.931,0.272c-1.846-0.35-3.763-0.428-5.765-0.202c-3.77,0.42-6.782,2.202-8.996,5.245	c-2.66,3.657-3.285,7.812-2.519,12.147c0.806,4.568,3.137,8.349,6.719,11.306c3.716,3.066,7.994,4.568,12.876,4.28	c2.965-0.171,6.266-0.568,9.989-3.719c0.939,0.467,1.924,0.654,3.559,0.794c1.259,0.117,2.472-0.062,3.411-0.257	c1.471-0.311,1.369-1.673,0.837-1.922C34,36,33.471,35.441,33.471,35.441c2.19-2.591,5.491-5.284,6.782-14.007	c0.102-0.692,0.016-1.128,0-1.689c-0.008-0.342,0.07-0.475,0.462-0.514c1.079-0.125,2.128-0.42,3.09-0.949	c2.793-1.525,3.919-4.031,4.185-7.034C48.028,10.79,47.981,10.315,47.496,10.074z M23.161,37.107	c-4.177-3.284-6.203-4.365-7.04-4.319c-0.782,0.047-0.641,0.942-0.469,1.525c0.18,0.576,0.415,0.973,0.743,1.478	c0.227,0.335,0.383,0.833-0.227,1.206c-1.345,0.833-3.684-0.28-3.794-0.335c-2.722-1.603-4.998-3.72-6.602-6.614	c-1.549-2.786-2.448-5.774-2.597-8.964c-0.039-0.77,0.188-1.043,0.954-1.183c1.009-0.187,2.049-0.226,3.059-0.078	c4.263,0.623,7.893,2.529,10.936,5.548c1.737,1.72,3.051,3.774,4.404,5.782c1.439,2.132,2.988,4.163,4.959,5.828	c0.696,0.584,1.252,1.027,1.783,1.354C27.667,38.515,24.991,38.554,23.161,37.107L23.161,37.107z M25.164,24.228	c0-0.342,0.274-0.615,0.618-0.615c0.078,0,0.149,0.015,0.211,0.039c0.086,0.031,0.164,0.078,0.227,0.148	c0.11,0.109,0.172,0.265,0.172,0.428c0,0.342-0.274,0.615-0.618,0.615S25.164,24.571,25.164,24.228L25.164,24.228z M31.382,27.419	c-0.399,0.163-0.798,0.303-1.181,0.319c-0.595,0.031-1.244-0.21-1.596-0.506c-0.548-0.459-0.939-0.716-1.103-1.517	c-0.07-0.342-0.031-0.872,0.031-1.175c0.141-0.654-0.016-1.074-0.477-1.455c-0.376-0.311-0.853-0.397-1.377-0.397	c-0.196,0-0.375-0.086-0.508-0.156c-0.219-0.109-0.399-0.381-0.227-0.716c0.055-0.109,0.321-0.373,0.383-0.42	c0.712-0.405,1.533-0.272,2.292,0.031c0.704,0.288,1.236,0.817,2.003,1.564c0.782,0.903,0.923,1.152,1.369,1.829	c0.352,0.529,0.673,1.074,0.892,1.696C32.016,26.905,31.844,27.224,31.382,27.419L31.382,27.419z"/></svg>
