<svg role="img" viewBox="0 0 24 24" xmlns="http://www.w3.org/2000/svg" id="Huggingface--Streamline-Simple-Icons" height="24" width="24">
  <desc>
    Huggingface Streamline Icon: https://streamlinehq.com
  </desc>
  <title>Hugging Face</title>
  <path d="M1.4446 11.5059c0 1.1021 0.1673 2.1585 0.4847 3.1563 -0.0378 -0.0028 -0.0691 -0.0058 -0.1058 -0.0058 -0.4209 0 -0.8015 0.16 -1.0704 0.4512 -0.3454 0.3737 -0.4984 0.8335 -0.4316 1.293a1.576 1.576 0 0 0 0.2148 0.5978c-0.2319 0.1864 -0.4018 0.4456 -0.4844 0.7578 -0.0646 0.2448 -0.131 0.7543 0.2149 1.2794a1.4552 1.4552 0 0 0 -0.0625 0.1055c-0.208 0.3923 -0.2207 0.8372 -0.0371 1.25 0.2783 0.6258 0.9696 1.1175 2.3126 1.6467 0.8356 0.3292 1.5988 0.5411 1.6056 0.543 1.1046 0.2847 2.104 0.4277 2.969 0.4277 1.4173 0 2.4754 -0.3849 3.1525 -1.1446 1.538 0.2651 2.791 0.1403 3.592 0.006 0.6773 0.7555 1.7332 1.1387 3.1467 1.1387 0.8649 0 1.8643 -0.143 2.969 -0.4278 0.0068 -0.0019 0.77 -0.2138 1.6056 -0.543 1.343 -0.5292 2.0343 -1.0208 2.3126 -1.6466 0.1836 -0.4129 0.171 -0.8577 -0.037 -1.25a1.4685 1.4685 0 0 0 -0.0626 -0.1056c0.346 -0.525 0.2795 -1.0346 0.2149 -1.2793 -0.0826 -0.3122 -0.2525 -0.5714 -0.4844 -0.7579 0.11 -0.1816 0.1831 -0.3788 0.2148 -0.5977 0.0669 -0.4595 -0.0862 -0.9193 -0.4316 -1.293 -0.2688 -0.2913 -0.6495 -0.4513 -1.0704 -0.4513 -0.0209 0 -0.0376 0.0008 -0.0588 0.0018 0.3162 -0.9966 0.4846 -2.0518 0.4846 -3.1523 0 -5.807 -4.7362 -10.5144 -10.5789 -10.5144 -5.8426 0 -10.5788 4.7073 -10.5788 10.5144Zm10.5788 -9.4831c5.2727 0 9.5476 4.246 9.5476 9.483a9.4201 9.4201 0 0 1 -0.2696 2.2365c-0.0039 -0.0047 -0.0079 -0.011 -0.0117 -0.0156 -0.274 -0.3255 -0.6679 -0.5059 -1.1075 -0.5059 -0.352 0 -0.714 0.1155 -1.0763 0.3438 -0.2403 0.1517 -0.5058 0.422 -0.7793 0.7598 -0.2534 -0.3492 -0.608 -0.5832 -1.0137 -0.6465a1.5174 1.5174 0 0 0 -0.2344 -0.0176c-0.9263 0 -1.4828 0.7993 -1.6935 1.5177 -0.1046 0.2426 -0.6065 1.3482 -1.3614 2.0978 -1.1681 1.1601 -1.4458 2.3534 -0.8396 3.6382 -0.843 0.1029 -1.5836 0.0927 -2.365 -0.006 0.5906 -1.212 0.3626 -2.4388 -0.8426 -3.6322 -0.755 -0.7496 -1.2568 -1.8552 -1.3614 -2.0978 -0.2107 -0.7184 -0.7673 -1.5177 -1.6935 -1.5177 -0.078 0 -0.1568 0.0054 -0.2344 0.0176 -0.4057 0.0633 -0.7604 0.2973 -1.0137 0.6465 -0.2735 -0.3379 -0.539 -0.6081 -0.7794 -0.7598 -0.3622 -0.2283 -0.7243 -0.3438 -1.0762 -0.3438 -0.4266 0 -0.8094 0.171 -1.0821 0.4786a9.4208 9.4208 0 0 1 -0.2598 -2.1936c0 -5.237 4.2749 -9.483 9.5475 -9.483zM8.6443 7.0036c-0.4838 0.0043 -0.9503 0.2667 -1.1934 0.7227 -0.3536 0.6633 -0.1006 1.4873 0.5645 1.84 0.351 0.1862 0.4883 -0.5261 0.836 -0.6485 0.3107 -0.1095 0.841 0.399 1.0078 0.086 0.3536 -0.6634 0.1025 -1.4874 -0.5625 -1.84a1.3659 1.3659 0 0 0 -0.6524 -0.1602Zm6.8403 0c-0.2199 -0.002 -0.4426 0.05 -0.6504 0.1602 -0.665 0.3526 -0.9181 1.1766 -0.5645 1.84 0.1669 0.313 0.6971 -0.1955 1.0079 -0.086 0.3476 0.1224 0.4867 0.8347 0.838 0.6485 0.6649 -0.3527 0.916 -1.1767 0.5624 -1.84 -0.243 -0.456 -0.7096 -0.7184 -1.1934 -0.7227Zm-9.7565 1.418a0.8768 0.8768 0 0 0 -0.877 0.877c0 0.4846 0.3925 0.877 0.877 0.877a0.8768 0.8768 0 0 0 0.877 -0.877 0.8768 0.8768 0 0 0 -0.877 -0.877zm12.6434 0c-0.4845 0 -0.879 0.3925 -0.879 0.877 0 0.4846 0.3945 0.877 0.879 0.877a0.8768 0.8768 0 0 0 0.877 -0.877 0.8768 0.8768 0 0 0 -0.877 -0.877zM8.7927 11.459c-0.179 -0.003 -0.2793 0.1107 -0.2793 0.416 0 0.8097 0.3874 2.125 1.4279 2.924 0.207 -0.7123 1.3453 -1.2832 1.5079 -1.2012 0.2315 0.1167 0.2191 0.4417 0.6074 0.7266 0.3884 -0.285 0.374 -0.6098 0.6056 -0.7266 0.1627 -0.082 1.3009 0.4889 1.5079 1.2012 1.0404 -0.799 1.4278 -2.1144 1.4278 -2.924 0 -1.2212 -1.583 0.6402 -3.5413 0.6485 -1.4686 -0.0061 -2.7266 -1.0558 -3.2639 -1.0645zM4.312 14.4768c0.5792 0.365 1.6964 2.2751 2.1056 3.0177 0.1371 0.2488 0.371 0.3536 0.582 0.3536 0.4188 0 0.7465 -0.4138 0.0391 -0.9395 -1.0636 -0.791 -0.6914 -2.0846 -0.1836 -2.1642a0.4302 0.4302 0 0 1 0.0664 -0.004c0.4616 0 0.666 0.7892 0.666 0.7892s0.5959 1.4898 1.6213 2.508c0.942 0.9356 1.062 1.703 0.4961 2.6661 -0.0164 -0.004 -0.0159 0.0236 -0.1484 0.2149 -0.1853 0.2673 -0.4322 0.4688 -0.7188 0.6152 -0.5062 0.2269 -1.1397 0.2696 -1.7833 0.2696 -1.037 0 -2.1017 -0.1824 -2.6975 -0.336 -0.0293 -0.0075 -3.6505 -0.9567 -3.1916 -1.8224 0.0771 -0.1454 0.2033 -0.2031 0.3633 -0.2031 0.6463 0 1.823 0.9551 2.3283 0.9551 0.113 0 0.196 -0.0865 0.2285 -0.2031 0.2249 -0.8045 -3.2787 -1.0522 -2.9846 -2.1642 0.0519 -0.1967 0.193 -0.2757 0.3907 -0.2754 0.854 0 2.7704 1.4923 3.172 1.4923 0.0307 0 0.0525 -0.0085 0.0645 -0.0274 0.2012 -0.3227 0.1096 -0.5865 -1.3087 -1.4395 -1.4182 -0.8533 -2.4315 -1.329 -1.8653 -1.9416 0.0651 -0.0707 0.1574 -0.1015 0.2695 -0.1015 0.8611 0.0002 2.8948 1.84 2.8948 1.84s0.5487 0.5683 0.8809 0.5683c0.0762 0 0.1416 -0.0315 0.1855 -0.1054 0.2355 -0.3946 -2.1858 -2.2183 -2.3224 -2.971 -0.0926 -0.51 0.0641 -0.7676 0.3555 -0.7676 -0.0006 0.008 0.1701 -0.0285 0.4942 0.1759zm16.2257 0.5918c-0.1366 0.7526 -2.5579 2.5764 -2.3224 2.9709 0.044 0.074 0.1092 0.1055 0.1855 0.1055 0.3321 0 0.881 -0.5684 0.881 -0.5684s2.0336 -1.8397 2.8947 -1.84c0.1121 0 0.2044 0.0308 0.2695 0.1016 0.5662 0.6125 -0.447 1.0882 -1.8653 1.9415 -1.4183 0.853 -1.51 1.1168 -1.3087 1.4396 0.012 0.0188 0.0337 0.0273 0.0644 0.0273 0.4016 0 2.3181 -1.4923 3.1721 -1.4923 0.1977 -0.0002 0.3388 0.0787 0.3907 0.2754 0.294 1.112 -3.2095 1.3597 -2.9846 2.1642 0.0325 0.1166 0.1156 0.2032 0.2285 0.2032 0.5054 0 1.682 -0.9552 2.3283 -0.9552 0.16 0 0.2862 0.0577 0.3633 0.2032 0.459 0.8656 -3.1623 1.8149 -3.1916 1.8224 -0.5958 0.1535 -1.6605 0.336 -2.6975 0.336 -0.6351 0 -1.261 -0.0409 -1.7638 -0.2599 -0.2949 -0.1472 -0.5488 -0.3516 -0.7383 -0.625 -0.0411 -0.0682 -0.1026 -0.1476 -0.1426 -0.205 -0.5726 -0.9679 -0.455 -1.7371 0.4903 -2.676 1.0254 -1.0182 1.6212 -2.508 1.6212 -2.508s0.2044 -0.7891 0.666 -0.7891a0.4318 0.4318 0 0 1 0.0665 0.0039c0.5078 0.0796 0.88 1.3732 -0.1836 2.1642 -0.7074 0.5257 -0.3797 0.9395 0.039 0.9395 0.211 0 0.445 -0.1047 0.5821 -0.3535 0.4092 -0.7426 1.5264 -2.6527 2.1056 -3.0178 0.5588 -0.3524 0.99 -0.1816 0.8497 0.5918z" fill="#000000" stroke-width="1"></path>
</svg>
