<!-- Slurm symbol, cropped from https://commons.wikimedia.org/wiki/File:Slurm_logo.svg (GPL).
     Vector tracing of the official Slurm branding; original path preserved. -->
<svg xmlns="http://www.w3.org/2000/svg" viewBox="28 0 534 269">
  <path id="slurm" d="m 276.51869,1.35595 c -10.03747,0 -18.17189,8.07623 -18.17189,18.04188 l 0,0 0,34.72604 c 0,9.95864 8.13442,18.04453 18.17189,18.04453 l 0,0 36.09331,0 c 10.03749,0 18.18515,-8.08589 18.18515,-18.04453 l 0,0 0,-34.72604 c 0,-9.96565 -8.14766,-18.04188 -18.18515,-18.04188 l 0,0 -36.09331,0 z m 88.71565,54.94648 c -7.5396,0 -13.65414,6.17626 -13.65414,13.77442 l 0,0 0,26.49865 c 0,7.60607 6.11454,13.77793 13.65414,13.77793 l 0,0 27.11802,0 c 7.54048,0 13.6497,-6.17186 13.6497,-13.77793 l 0,0 0,-26.49865 c 0,-7.59816 -6.10922,-13.77442 -13.6497,-13.77442 l 0,0 -27.11802,0 z m -168.45685,0 c -7.537,0 -13.65239,6.17626 -13.65239,13.77442 l 0,0 0,26.49865 c 0,7.60607 6.11539,13.77793 13.65239,13.77793 l 0,0 27.11617,0 c 7.53607,0 13.65414,-6.17186 13.65414,-13.77793 l 0,0 0,-26.49865 c 0,-7.59816 -6.11807,-13.77442 -13.65414,-13.77442 l 0,0 -27.11617,0 z m 79.7412,30.3944 c -10.03747,0 -18.17189,8.07184 -18.17189,18.04365 l 0,0 0,34.72341 c 0,9.96391 8.13442,18.04716 18.17189,18.04716 l 0,0 36.09331,0 c 10.03749,0 18.18515,-8.08325 18.18515,-18.04716 l 0,0 0,-34.72341 c 0,-9.97181 -8.14766,-18.04365 -18.18515,-18.04365 l 0,0 -36.09331,0 z m 158.47519,16.27901 c -5.60732,0 -10.15253,4.58561 -10.15253,10.24865 l 0,0 0,19.71251 c 0,5.65072 4.54521,10.23984 10.15253,10.23984 l 0,0 20.17408,0 c 5.60384,0 10.15254,-4.58912 10.15254,-10.23984 l 0,0 0,-19.71251 c 0,-5.66304 -4.5487,-10.24865 -10.15254,-10.24865 l 0,0 -20.17408,0 z m -300.14068,0 c -5.60563,0 -10.15607,4.58561 -10.15607,10.24865 l 0,0 0,19.71251 c 0,5.65072 4.55044,10.23984 10.15607,10.23984 l 0,0 20.16783,0 c 5.6127,0 10.15786,-4.58912 10.15786,-10.23984 l 0,0 0,-19.71251 c 0,-5.66304 -4.54516,-10.24865 -10.15786,-10.24865 l 0,0 -20.16783,0 z m 230.38114,20.74687 c -7.5396,0 -13.65414,6.16658 -13.65414,13.76562 l 0,0 0,26.50744 c 0,7.59993 6.11454,13.76914 13.65414,13.76914 l 0,0 27.11802,0 c 7.54048,0 13.6497,-6.16921 13.6497,-13.76914 l 0,0 0,-26.50744 c 0,-7.59904 -6.10922,-13.76562 -13.6497,-13.76562 l 0,0 -27.11802,0 z m -168.45685,0 c -7.537,0 -13.65239,6.16658 -13.65239,13.76562 l 0,0 0,26.50744 c 0,7.59993 6.11539,13.76914 13.65239,13.76914 l 0,0 27.11617,0 c 7.53607,0 13.65414,-6.16921 13.65414,-13.76914 l 0,0 0,-26.50744 c 0,-7.59904 -6.11807,-13.76562 -13.65414,-13.76562 l 0,0 -27.11617,0 z m 238.21639,33.392 c -5.60732,0 -10.15253,4.58298 -10.15253,10.23898 l 0,0 0,19.71338 c 0,5.65162 4.54521,10.24162 10.15253,10.24162 l 0,0 20.17408,0 c 5.60384,0 10.15254,-4.59 10.15254,-10.24162 l 0,0 0,-19.71338 c 0,-5.656 -4.5487,-10.23898 -10.15254,-10.23898 l 0,0 -20.17408,0 z m -300.14068,0 c -5.60563,0 -10.15607,4.58298 -10.15607,10.23898 l 0,0 0,19.71338 c 0,5.65162 4.55044,10.24162 10.15607,10.24162 l 0,0 20.16783,0 c 5.6127,0 10.15786,-4.59 10.15786,-10.24162 l 0,0 0,-19.71338 c 0,-5.656 -4.54516,-10.23898 -10.15786,-10.23898 l 0,0 -20.16783,0 z m 141.66549,14.18043 c -10.03747,0 -18.17189,8.07973 -18.17189,18.04629 l 0,0 0,34.72603 c 0,9.96479 8.13442,18.03839 18.17189,18.03839 l 0,0 36.09331,0 c 10.03749,0 18.18515,-8.0736 18.18515,-18.03839 l 0,0 0,-34.72603 c 0,-9.96656 -8.14766,-18.04629 -18.18515,-18.04629 l 0,0 -36.09331,0 z m 218.09457,14.83601 c -4.16984,0 -7.54314,3.40801 -7.54314,7.60607 l 0,0 0,14.633 c 0,4.19806 3.3733,7.59993 7.54314,7.59993 l 0,0 14.97393,0 c 4.15747,0 7.52807,-3.40187 7.52807,-7.59993 l 0,0 0,-14.633 c 0,-4.19806 -3.3706,-7.60607 -7.52807,-7.60607 l 0,0 -14.97393,0 z m -414.175738,0 c -4.163688,0 -7.53695,3.40801 -7.53695,7.60607 l 0,0 0,14.633 c 0,4.19806 3.373262,7.59993 7.53695,7.59993 l 0,0 14.967691,0 c 4.16636,0 7.538737,-3.40187 7.538737,-7.59993 l 0,0 0,-14.633 c 0,-4.19806 -3.372377,-7.60607 -7.538737,-7.60607 l 0,0 -14.967691,0 z m 284.796818,5.02414 c -7.5396,0 -13.65414,6.16218 -13.65414,13.76298 l 0,0 0,26.50216 c 0,7.60608 6.11454,13.77353 13.65414,13.77353 l 0,0 27.11802,0 c 7.54048,0 13.6497,-6.16745 13.6497,-13.77353 l 0,0 0,-26.50216 c 0,-7.6008 -6.10922,-13.76298 -13.6497,-13.76298 l 0,0 -27.11802,0 z m -168.45685,0 c -7.537,0 -13.65239,6.16218 -13.65239,13.76298 l 0,0 0,26.50216 c 0,7.60608 6.11539,13.77353 13.65239,13.77353 l 0,0 27.11617,0 c 7.53607,0 13.65414,-6.16745 13.65414,-13.77353 l 0,0 0,-26.50216 c 0,-7.6008 -6.11807,-13.76298 -13.65414,-13.76298 l 0,0 -27.11617,0 z m 238.21639,20.50255 c -5.60732,0 -10.15253,4.59527 -10.15253,10.25655 l 0,0 0,19.70811 c 0,5.66215 4.54521,10.23985 10.15253,10.23985 l 0,0 20.17408,0 c 5.60384,0 10.15254,-4.5777 10.15254,-10.23985 l 0,0 0,-19.70811 c 0,-5.66128 -4.5487,-10.25655 -10.15254,-10.25655 l 0,0 -20.17408,0 z m -300.14068,0 c -5.60563,0 -10.15607,4.59527 -10.15607,10.25655 l 0,0 0,19.70811 c 0,5.66215 4.55044,10.23985 10.15607,10.23985 l 0,0 20.16783,0 c 5.6127,0 10.15786,-4.5777 10.15786,-10.23985 l 0,0 0,-19.70811 c 0,-5.66128 -4.54516,-10.25655 -10.15786,-10.25655 l 0,0 -20.16783,0 z m 359.76006,19.04111 c -4.16984,0 -7.54314,3.40449 -7.54314,7.60255 l 0,0 0,14.63301 c 0,4.19013 3.3733,7.60606 7.54314,7.60606 l 0,0 14.97393,0 c 4.15747,0 7.52807,-3.41593 7.52807,-7.60606 l 0,0 0,-14.63301 c 0,-4.19806 -3.3706,-7.60255 -7.52807,-7.60255 l 0,0 -14.97393,0 z m -414.175738,0 c -4.163688,0 -7.53695,3.40449 -7.53695,7.60255 l 0,0 0,14.63301 c 0,4.19013 3.373262,7.60606 7.53695,7.60606 l 0,0 14.967691,0 c 4.16636,0 7.538737,-3.41593 7.538737,-7.60606 l 0,0 0,-14.63301 c 0,-4.19806 -3.372377,-7.60255 -7.538737,-7.60255 l 0,0 -14.967691,0 z m 463.610728,14.62158 c -3.14309,0 -5.69675,2.56786 -5.69675,5.73685 l 0,0 0,11.03956 c 0,3.15931 2.55366,5.73245 5.69675,5.73245 l 0,0 11.29436,0 c 3.13078,0 5.6826,-2.57314 5.6826,-5.73245 l 0,0 0,-11.03956 c 0,-3.16899 -2.55182,-5.73685 -5.6826,-5.73685 l 0,0 -11.29436,0 z m -509.365304,0 c -3.141356,0 -5.69144,2.56786 -5.69144,5.73685 l 0,0 0,11.03956 c 0,3.15931 2.550084,5.73245 5.69144,5.73245 l 0,0 11.287287,0 c 3.142241,0 5.685242,-2.57314 5.685242,-5.73245 l 0,0 0,-11.03956 c 0,-3.16899 -2.543001,-5.73685 -5.685242,-5.73685 l 0,0 -11.287287,0 z" />
</svg>
