<svg width="731" height="455" viewBox="0 0 731 455" fill="none" xmlns="http://www.w3.org/2000/svg">
<rect x="0.0151513" y="0.816199" width="397.933" height="397.933" rx="29" transform="matrix(0.920324 0.391156 -0.905173 0.425043 362.75 128.228)" stroke="url(#paint0_linear_2056_3412)" stroke-width="2"/>
<rect x="0.0151513" y="0.816199" width="397.933" height="397.933" rx="29" transform="matrix(0.920324 0.391156 -0.905173 0.425043 362.75 128.228)" stroke="url(#paint1_linear_2056_3412)" stroke-width="1"/>
<rect width="231.087" height="231.087" rx="30" transform="matrix(0.920324 0.391156 -0.905173 0.425043 363.289 196.671)" stroke="url(#paint7_linear_2056_3412)" stroke-width="1" stroke-linecap="butt" stroke-linejoin="round" stroke-dasharray="4 4"/>
<path d="M388.141 308.319L409.599 294.602L402.086 290.566L380.014 304.675L379.559 304.974C377.344 306.474 375.94 308.09 375.347 309.821C374.714 311.668 374.982 313.518 376.151 315.369C377.258 317.099 379.143 318.714 381.805 320.214L382.347 320.513C385.102 321.993 387.988 323.012 391.006 323.569L391.611 323.675C394.861 324.197 398.028 324.193 401.113 323.663C404.016 323.173 406.647 322.217 409.007 320.794L409.476 320.503L431.548 306.394L424.035 302.358L402.577 316.074L402.332 316.226C401.1 316.972 399.73 317.495 398.222 317.796C396.625 318.122 394.996 318.178 393.333 317.961C391.682 317.751 390.128 317.254 388.67 316.471L390.131 315.538C391.375 316.206 392.62 316.588 393.863 316.746L393.871 316.747C395.166 316.916 396.395 316.871 397.604 316.624L397.613 316.622L397.621 316.621C398.837 316.378 399.979 315.938 401.05 315.254L423.969 300.604L434.536 306.28L411.003 321.323C408.285 323.06 405.156 324.257 401.626 324.855C398.135 325.454 394.57 325.452 390.976 324.874L390.967 324.873C387.37 324.285 384.012 323.125 380.887 321.447C377.751 319.762 375.482 317.9 374.171 315.85L374.167 315.845C372.874 313.797 372.56 311.716 373.276 309.626C373.998 307.519 375.769 305.592 378.487 303.855L402.02 288.812L412.586 294.489L389.667 309.139C388.597 309.823 387.941 310.525 387.624 311.25L387.57 311.388C387.32 312.079 387.376 312.762 387.75 313.459C388.14 314.182 388.901 314.877 390.131 315.538L388.67 316.471C387.315 315.743 386.37 314.938 385.835 314.056L385.733 313.878C385.253 312.986 385.177 312.087 385.503 311.182L385.573 311.001C385.964 310.1 386.74 309.258 387.903 308.475L388.141 308.319Z" fill="url(#paint2_linear_2056_3412)"/>
<path d="M385.687 295.307C387.943 293.864 389.431 292.321 390.151 290.677C390.847 289.135 390.811 287.594 390.043 286.055L389.879 285.748C389.024 284.202 387.385 282.745 384.963 281.376L384.469 281.103L385.929 280.169C388.814 281.719 390.844 283.43 391.888 285.313C392.933 287.17 393.045 289.059 392.193 290.948L392.192 290.948C391.368 292.823 389.68 294.551 387.213 296.127C384.741 297.708 381.936 298.842 378.798 299.479C375.643 300.118 372.408 300.189 369.143 299.713L369.143 299.714C365.858 299.239 362.763 298.181 359.849 296.616L355.06 294.043L344.041 301.087L333.474 295.41L370.383 271.818L385.929 280.169L384.469 281.103L370.449 273.571L336.461 295.297L343.974 299.333L354.994 292.289L361.309 295.682L361.822 295.951C364.39 297.264 367.026 298.116 369.729 298.506C372.442 298.903 375.089 298.868 377.67 298.404L378.185 298.306C380.758 297.784 383.116 296.873 385.261 295.572L385.687 295.307ZM376.421 290.329C377.351 289.735 377.895 289.159 378.153 288.601L378.158 288.591L378.163 288.582C378.421 288.055 378.402 287.519 378.052 286.937L378.05 286.931L378.047 286.925C377.715 286.355 376.988 285.714 375.693 285.018L372.154 283.117L363.74 288.495L367.314 290.415L365.854 291.349L360.752 288.608L372.087 281.363L377.153 284.085C378.611 284.867 379.576 285.666 380.049 286.48C380.532 287.286 380.58 288.086 380.191 288.879C379.824 289.671 379.076 290.428 377.948 291.15L377.524 291.408C376.523 291.987 375.436 292.407 374.266 292.666L374.019 292.719C372.779 292.967 371.486 292.999 370.141 292.813L369.876 292.772C368.638 292.566 367.387 292.139 366.124 291.491L365.854 291.349L367.314 290.415C368.593 291.102 369.728 291.463 370.708 291.602C371.764 291.748 372.703 291.706 373.585 291.508L373.593 291.506C374.561 291.291 375.505 290.914 376.421 290.329Z" fill="url(#paint3_linear_2056_3412)"/>
<path d="M323.311 268.201C325.678 266.687 328.063 265.612 330.464 264.976C332.876 264.332 335.196 264.102 337.423 264.283C339.663 264.471 341.691 265.053 343.507 266.028L343.862 266.225C344.667 266.688 345.318 267.172 345.813 267.677C346.391 268.261 346.77 268.862 346.952 269.48C347.156 270.098 347.164 270.726 346.973 271.366C346.815 271.919 346.511 272.477 346.059 273.042L345.856 273.284L353.49 277.385C354.929 276.18 355.918 274.901 356.456 273.55C356.97 272.277 357.096 270.995 356.833 269.705L356.776 269.447C356.473 268.161 355.792 266.913 354.734 265.703L354.517 265.461C353.419 264.249 351.952 263.13 350.114 262.104L349.741 261.9C347.393 260.639 344.82 259.718 342.022 259.139C339.224 258.56 336.314 258.345 333.294 258.492L332.728 258.524C329.897 258.709 327.069 259.238 324.245 260.112C321.255 261.044 318.383 262.391 315.628 264.151L314.969 264.582C311.748 266.738 309.569 268.95 308.433 271.22C307.245 273.64 307.203 275.98 308.308 278.24C309.355 280.352 311.375 282.26 314.369 283.965L314.98 284.304C317.964 285.907 321.189 286.962 324.653 287.469C328.128 287.969 331.593 287.892 335.047 287.235C338.512 286.572 341.739 285.285 344.726 283.375L349.007 280.639L334.137 272.65L328.727 276.108L336.358 280.208C334.969 281.06 333.463 281.644 331.839 281.958C330.14 282.295 328.39 282.325 326.589 282.047C324.811 281.769 323.072 281.173 321.371 280.259L322.832 279.326C324.261 280.093 325.636 280.566 326.95 280.802L327.213 280.846C328.642 281.065 329.966 281.035 331.24 280.782L331.256 280.779C331.902 280.654 332.543 280.469 333.176 280.217L325.739 276.222L334.071 270.896L351.994 280.525L346.253 284.196C343.057 286.238 339.517 287.67 335.624 288.416L335.618 288.416C331.784 289.145 327.919 289.231 324.069 288.677L324.062 288.676C320.228 288.114 316.713 286.953 313.519 285.237C309.957 283.323 307.512 281.123 306.278 278.634L306.276 278.629C305.056 276.137 305.11 273.558 306.405 270.922L306.408 270.916C307.734 268.266 310.335 265.738 314.101 263.331C316.995 261.481 320.064 260.034 323.318 259.02L323.324 259.018C326.57 258.013 329.869 257.417 333.208 257.254C336.521 257.092 339.723 257.329 342.797 257.965C345.87 258.601 348.672 259.608 351.202 260.967C353.362 262.127 355.098 263.416 356.385 264.835L356.622 265.099C357.777 266.421 358.532 267.797 358.869 269.226L358.868 269.225C359.239 270.753 359.122 272.277 358.51 273.789L358.51 273.789C357.904 275.307 356.795 276.736 355.203 278.07L353.782 279.26L343.246 273.6L343.985 272.754C344.459 272.211 344.75 271.698 344.889 271.211L344.89 271.206L344.892 271.201C345.039 270.71 345.033 270.234 344.878 269.767L344.874 269.755L344.87 269.742C344.733 269.276 344.442 268.808 343.975 268.336L343.971 268.331C343.523 267.874 342.892 267.416 342.047 266.962C340.498 266.13 338.838 265.664 337.047 265.513L337.047 265.514C335.275 265.37 333.365 265.545 331.268 266.104L331.263 266.106C329.21 266.65 327.063 267.599 324.838 269.021C322.611 270.444 321.161 271.788 320.379 273.05C319.594 274.317 319.452 275.449 319.849 276.481C320.257 277.508 321.213 278.456 322.832 279.326L321.371 280.259C319.615 279.315 318.455 278.247 317.894 277.053L317.79 276.813C317.287 275.514 317.49 274.133 318.398 272.668C319.306 271.203 320.943 269.714 323.311 268.201Z" fill="url(#paint4_linear_2056_3412)"/>
<rect x="0.0151513" y="0.816199" width="397.933" height="397.933" rx="29" transform="matrix(0.920324 0.391156 -0.905173 0.425043 362.75 0.463353)" stroke="url(#paint5_linear_2056_3412)" stroke-width="1"/>
<rect x="0.0151513" y="0.816199" width="397.933" height="397.933" rx="29" transform="matrix(0.920324 0.391156 -0.905173 0.425043 362.75 0.463353)" stroke="url(#paint6_linear_2056_3412)" stroke-width="3"/>
<defs>
<linearGradient id="paint0_linear_2056_3412" x1="199.967" y1="0" x2="199.967" y2="399.933" gradientUnits="userSpaceOnUse">
<stop stop-color="#1D4BFF" stop-opacity="0.92" style="stop-color:#1D4BFF;stop-opacity:0.92;"/>
<stop offset="0.45" stop-color="#7A48FF" stop-opacity="0.9" style="stop-color:#7A48FF;stop-opacity:0.9;"/>
<stop offset="1" stop-color="#F04CFF" stop-opacity="0.92" style="stop-color:#F04CFF;stop-opacity:0.92;"/>
</linearGradient>
<linearGradient id="paint1_linear_2056_3412" x1="170.012" y1="373.684" x2="226.135" y2="300.767" gradientUnits="userSpaceOnUse">
<stop stop-color="#A7B7FF" stop-opacity="0.76" style="stop-color:#A7B7FF;stop-opacity:0.76;"/>
<stop offset="0.46" stop-color="#3157F6" stop-opacity="0.82" style="stop-color:#3157F6;stop-opacity:0.82;"/>
<stop offset="1" stop-color="#1F39D6" stop-opacity="0.84" style="stop-color:#1F39D6;stop-opacity:0.84;"/>
</linearGradient>
<linearGradient id="paint2_linear_2056_3412" x1="323.978" y1="287.673" x2="435.259" y2="225.714" gradientUnits="userSpaceOnUse">
<stop stop-color="#5668FF" style="stop-color:#5668FF;stop-opacity:1;"/>
<stop offset="1" stop-color="#8F41FF" style="stop-color:#8F41FF;stop-opacity:1;"/>
</linearGradient>
<linearGradient id="paint3_linear_2056_3412" x1="323.977" y1="287.673" x2="435.258" y2="225.714" gradientUnits="userSpaceOnUse">
<stop stop-color="#5668FF" style="stop-color:#5668FF;stop-opacity:1;"/>
<stop offset="1" stop-color="#8F41FF" style="stop-color:#8F41FF;stop-opacity:1;"/>
</linearGradient>
<linearGradient id="paint4_linear_2056_3412" x1="323.978" y1="287.673" x2="435.259" y2="225.714" gradientUnits="userSpaceOnUse">
<stop stop-color="#5668FF" style="stop-color:#5668FF;stop-opacity:1;"/>
<stop offset="1" stop-color="#8F41FF" style="stop-color:#8F41FF;stop-opacity:1;"/>
</linearGradient>
<linearGradient id="paint5_linear_2056_3412" x1="199.967" y1="0" x2="199.967" y2="399.933" gradientUnits="userSpaceOnUse">
<stop stop-color="#CB25FF" stop-opacity="0.92" style="stop-color:#CB25FF;stop-opacity:0.92;"/>
<stop offset="0.5" stop-color="#8F41FF" stop-opacity="0.82" style="stop-color:#8F41FF;stop-opacity:0.82;"/>
<stop offset="1" stop-color="#2557FF" stop-opacity="0.8" style="stop-color:#2557FF;stop-opacity:0.8;"/>
</linearGradient>
<linearGradient id="paint6_linear_2056_3412" x1="180.738" y1="380.693" x2="233.925" y2="309.192" gradientUnits="userSpaceOnUse">
<stop stop-color="#BBC7FF" stop-opacity="0.68" style="stop-color:#BBC7FF;stop-opacity:0.68;"/>
<stop offset="0.42" stop-color="#4B61FF" stop-opacity="0.78" style="stop-color:#4B61FF;stop-opacity:0.78;"/>
<stop offset="1" stop-color="#B738FF" stop-opacity="0.82" style="stop-color:#B738FF;stop-opacity:0.82;"/>
</linearGradient>
<linearGradient id="paint7_linear_2056_3412" x1="115.544" y1="231.087" x2="115.544" y2="0" gradientUnits="userSpaceOnUse">
<stop stop-color="#4868FF" stop-opacity="0.64" style="stop-color:#4868FF;stop-opacity:0.64;"/>
<stop offset="0.48" stop-color="#A35BFF" stop-opacity="0.78" style="stop-color:#A35BFF;stop-opacity:0.78;"/>
<stop offset="1" stop-color="#F09BFF" stop-opacity="0.72" style="stop-color:#F09BFF;stop-opacity:0.72;"/>
</linearGradient>
</defs>
</svg>
