<svg width="179" height="48" viewBox="0 0 179 48" fill="none" xmlns="http://www.w3.org/2000/svg">
<path d="M72.3879 28.36C73.2546 27.476 73.6879 26.2973 73.6879 24.824C73.6879 23.3506 73.2546 22.1806 72.3879 21.314C71.5386 20.4473 70.5246 20.014 69.3459 20.014C68.1672 20.014 67.1446 20.4386 66.2779 21.288C65.4286 22.1373 65.0039 23.2986 65.0039 24.772C65.0039 26.2453 65.4286 27.4326 66.2779 28.334C67.1446 29.218 68.1672 29.66 69.3459 29.66C70.5246 29.66 71.5386 29.2266 72.3879 28.36ZM68.7219 32.234C66.8152 32.234 65.2119 31.5406 63.9119 30.154C62.6119 28.75 61.9619 26.9646 61.9619 24.798C61.9619 22.614 62.6032 20.846 63.8859 19.494C65.1859 18.1246 66.7979 17.44 68.7219 17.44C69.8486 17.44 70.8366 17.7 71.6859 18.22C72.5526 18.7226 73.2199 19.39 73.6879 20.222V12.76H76.6779V32H73.6879V29.322C73.2026 30.206 72.5352 30.9166 71.6859 31.454C70.8366 31.974 69.8486 32.234 68.7219 32.234Z" fill="#303340"/>
<path d="M79.921 21.782C79.921 20.5686 80.4323 19.546 81.455 18.714C82.4777 17.8646 83.821 17.44 85.485 17.44C87.149 17.44 88.4663 17.856 89.437 18.688C90.425 19.5026 90.9537 20.6206 91.023 22.042H87.981C87.929 21.3313 87.6777 20.7766 87.227 20.378C86.7937 19.9793 86.1783 19.78 85.381 19.78C84.5837 19.78 83.9597 19.962 83.509 20.326C83.0583 20.6726 82.833 21.1406 82.833 21.73C82.833 22.302 83.119 22.7526 83.691 23.082C84.263 23.4113 84.9563 23.654 85.771 23.81C86.603 23.966 87.4263 24.1566 88.241 24.382C89.073 24.6073 89.775 25.0233 90.347 25.63C90.919 26.2193 91.205 27.0166 91.205 28.022C91.205 29.27 90.6763 30.284 89.619 31.064C88.579 31.844 87.2357 32.234 85.589 32.234C83.9423 32.234 82.6077 31.8353 81.585 31.038C80.5623 30.2406 79.999 29.1053 79.895 27.632H82.963C83.015 28.3426 83.275 28.8973 83.743 29.296C84.211 29.6946 84.8437 29.894 85.641 29.894C86.4557 29.894 87.097 29.7206 87.565 29.374C88.0503 29.01 88.293 28.5333 88.293 27.944C88.293 27.3546 88.007 26.8953 87.435 26.566C86.863 26.2366 86.161 25.994 85.329 25.838C84.5143 25.6646 83.691 25.474 82.859 25.266C82.0443 25.0406 81.351 24.642 80.779 24.07C80.207 23.498 79.921 22.7353 79.921 21.782Z" fill="#303340"/>
<path d="M101.402 20.092H97.9177V28.022C97.9177 28.5593 98.039 28.9493 98.2817 29.192C98.5417 29.4173 98.975 29.53 99.5817 29.53H101.402V32H99.0617C96.3057 32 94.9277 30.674 94.9277 28.022V20.092H93.2377V17.674H94.9277V14.112H97.9177V17.674H101.402V20.092Z" fill="#303340"/>
<path d="M113.572 28.36C114.438 27.476 114.872 26.2973 114.872 24.824C114.872 23.3506 114.438 22.1806 113.572 21.314C112.722 20.4473 111.708 20.014 110.53 20.014C109.351 20.014 108.328 20.4386 107.462 21.288C106.612 22.1373 106.188 23.2986 106.188 24.772C106.188 26.2453 106.612 27.4326 107.462 28.334C108.328 29.218 109.351 29.66 110.53 29.66C111.708 29.66 112.722 29.2266 113.572 28.36ZM109.906 32.234C107.999 32.234 106.396 31.5406 105.096 30.154C103.796 28.75 103.146 26.9646 103.146 24.798C103.146 22.614 103.787 20.846 105.07 19.494C106.37 18.1246 107.982 17.44 109.906 17.44C111.032 17.44 112.02 17.7 112.87 18.22C113.736 18.7226 114.404 19.39 114.872 20.222V17.674H117.862V32H114.872V29.322C114.386 30.206 113.719 30.9166 112.87 31.454C112.02 31.974 111.032 32.234 109.906 32.234Z" fill="#303340"/>
<path d="M127.787 32.234C125.707 32.234 124.017 31.558 122.717 30.206C121.417 28.854 120.767 27.0686 120.767 24.85C120.767 22.614 121.417 20.82 122.717 19.468C124.034 18.116 125.724 17.44 127.787 17.44C129.52 17.44 130.95 17.856 132.077 18.688C133.221 19.5026 133.992 20.6726 134.391 22.198H131.193C130.655 20.69 129.52 19.936 127.787 19.936C126.573 19.936 125.603 20.3693 124.875 21.236C124.164 22.0853 123.809 23.2813 123.809 24.824C123.809 26.3666 124.164 27.5713 124.875 28.438C125.603 29.3046 126.573 29.738 127.787 29.738C129.503 29.738 130.638 28.984 131.193 27.476H134.391C133.975 28.932 133.195 30.0933 132.051 30.96C130.907 31.8093 129.485 32.234 127.787 32.234Z" fill="#303340"/>
<path d="M140.308 32H137.344V12.76H140.308V23.94L145.508 17.674H149.616L143.012 24.85L149.616 32H145.612L140.308 25.838V32Z" fill="#303340"/>
<path d="M154.107 31.506C153.76 31.8353 153.336 32 152.833 32C152.33 32 151.906 31.8266 151.559 31.48C151.23 31.1333 151.065 30.7173 151.065 30.232C151.065 29.7293 151.23 29.3046 151.559 28.958C151.906 28.6113 152.33 28.438 152.833 28.438C153.336 28.438 153.76 28.6113 154.107 28.958C154.454 29.3046 154.627 29.7293 154.627 30.232C154.627 30.7346 154.454 31.1593 154.107 31.506Z" fill="#303340"/>
<path d="M167.298 28.36C168.165 27.476 168.598 26.2973 168.598 24.824C168.598 23.3506 168.165 22.1806 167.298 21.314C166.449 20.4473 165.435 20.014 164.256 20.014C163.077 20.014 162.055 20.4386 161.188 21.288C160.339 22.1373 159.914 23.2986 159.914 24.772C159.914 26.2453 160.339 27.4326 161.188 28.334C162.055 29.218 163.077 29.66 164.256 29.66C165.435 29.66 166.449 29.2266 167.298 28.36ZM163.632 32.234C161.725 32.234 160.122 31.5406 158.822 30.154C157.522 28.75 156.872 26.9646 156.872 24.798C156.872 22.614 157.513 20.846 158.796 19.494C160.096 18.1246 161.708 17.44 163.632 17.44C164.759 17.44 165.747 17.7 166.596 18.22C167.463 18.7226 168.13 19.39 168.598 20.222V17.674H171.588V32H168.598V29.322C168.113 30.206 167.445 30.9166 166.596 31.454C165.747 31.974 164.759 32.234 163.632 32.234Z" fill="#303340"/>
<path d="M178.861 13.878C178.861 14.4153 178.679 14.866 178.315 15.23C177.951 15.594 177.5 15.776 176.963 15.776C176.443 15.776 176.001 15.594 175.637 15.23C175.273 14.866 175.091 14.4153 175.091 13.878C175.091 13.3406 175.273 12.89 175.637 12.526C176.001 12.162 176.443 11.98 176.963 11.98C177.5 11.98 177.951 12.162 178.315 12.526C178.679 12.89 178.861 13.3406 178.861 13.878ZM175.481 32V17.674H178.445V32H175.481Z" fill="#303340"/>
<rect width="31.2836" height="29.6451" rx="3" transform="matrix(0.845565 -0.533872 0.845565 0.533872 0 32.1738)" fill="url(#paint0_linear)"/>
<rect width="31.2836" height="29.6451" rx="3" transform="matrix(0.845565 -0.533872 0.845565 0.533872 0 24.5898)" fill="url(#paint1_linear)" fill-opacity="0.9"/>
<rect width="31.2836" height="29.6451" rx="3" transform="matrix(0.845565 -0.533872 0.845565 0.533872 0.0668945 16.7017)" fill="url(#paint2_linear)" fill-opacity="0.9"/>
<defs>
<linearGradient id="paint0_linear" x1="24.9779" y1="-2.50775" x2="2.62307" y2="27.3524" gradientUnits="userSpaceOnUse">
<stop stop-color="#372191"/>
<stop offset="1" stop-color="#9D8EF8"/>
</linearGradient>
<linearGradient id="paint1_linear" x1="24.8993" y1="-2.42909" x2="-1.34759" y2="22.3765" gradientUnits="userSpaceOnUse">
<stop stop-color="#7B369F"/>
<stop offset="1" stop-color="#DCAFF3"/>
</linearGradient>
<linearGradient id="paint2_linear" x1="18.1129" y1="3.68685" x2="-8.56378" y2="16.9522" gradientUnits="userSpaceOnUse">
<stop stop-color="#84D1EA"/>
<stop offset="1" stop-color="#DAF7FE"/>
</linearGradient>
</defs>
</svg>
